<svg width="99" height="72" viewBox="0 0 99 72" fill="none" xmlns="http://www.w3.org/2000/svg">
<path d="M92.1895 71.9985C90.9959 72 89.8228 71.6912 88.788 71.103C87.7532 70.5147 86.8931 69.6678 86.2939 68.6471L86.1503 68.4015L87.5635 67.5936L87.685 67.8502C88.1232 68.6557 88.7727 69.3297 89.5654 69.8012C90.358 70.2728 91.2644 70.5246 92.1895 70.5302C93.5819 70.51 94.9094 69.9449 95.881 68.9586C96.8527 67.9722 97.3892 66.6452 97.373 65.2684V62.5775C96.7763 63.381 95.9954 64.033 95.0942 64.4799C94.1931 64.9269 93.1976 65.1559 92.1895 65.1483C91.279 65.174 90.3725 65.0188 89.5237 64.692C88.6749 64.3651 87.901 63.8733 87.2478 63.2456C86.5946 62.6179 86.0754 61.867 85.7208 61.0373C85.3663 60.2077 85.1836 59.3162 85.1836 58.4156C85.1836 57.5149 85.3663 56.6234 85.7208 55.7938C86.0754 54.9641 86.5946 54.2133 87.2478 53.5855C87.901 52.9578 88.6749 52.466 89.5237 52.1392C90.3725 51.8123 91.279 51.6571 92.1895 51.6828C93.1986 51.6727 94.1955 51.9012 95.0972 52.3494C95.9989 52.7975 96.7792 53.4523 97.373 54.2591V52.1959H99.0291V65.2957C99.0203 67.0811 98.2949 68.7901 97.0124 70.0469C95.7299 71.3038 93.9952 72.0057 92.1895 71.9985ZM92.1895 53.1565C91.1313 53.1294 90.089 53.4149 89.1958 53.9765C88.3026 54.5382 87.5991 55.3505 87.1752 56.3096C86.7513 57.2687 86.6264 58.3309 86.8163 59.3606C87.0062 60.3903 87.5024 61.3405 88.2414 62.0899C88.9804 62.8393 89.9286 63.3537 90.9649 63.5674C92.0011 63.7811 93.0782 63.6844 94.0586 63.2897C95.039 62.8949 95.878 62.22 96.4684 61.3513C97.0588 60.4826 97.3737 59.4595 97.373 58.4128C97.3877 57.037 96.8506 55.7114 95.8791 54.7262C94.9076 53.7411 93.5809 53.1766 92.1895 53.1565Z" fill="#C78325"/>
<path d="M43.5542 43.9609V43.2459C43.5542 41.4638 44.2701 39.7548 45.5445 38.4947C46.8189 37.2346 48.5474 36.5267 50.3496 36.5267C52.1519 36.5267 53.8803 37.2346 55.1547 38.4947C56.4291 39.7548 57.145 41.4638 57.145 43.2459V43.9609H43.5542ZM50.3496 37.9568C49.089 37.9756 47.8771 38.4409 46.934 39.2683C45.9909 40.0956 45.3793 41.23 45.2103 42.4653V42.4981H55.5V42.4653C55.3281 41.2307 54.7137 40.0981 53.7684 39.2736C52.8232 38.4492 51.61 37.9877 50.3496 37.9732V37.9568Z" fill="#C78325"/>
<path d="M40.4033 64.6258L40.4144 28.8415L42.0483 28.836L42.0428 63.1357L50.7151 63.1467V64.6258H40.4033Z" fill="#C78325"/>
<path fill-rule="evenodd" clip-rule="evenodd" d="M38.0568 19.4697H32.9837C32.6752 19.4726 32.3804 19.5958 32.1633 19.8125C31.9462 20.0292 31.8244 20.3219 31.8245 20.6269V25.2173C31.8229 25.5248 31.9435 25.8206 32.1603 26.0411C32.3771 26.2616 32.6728 26.3891 32.9837 26.3963H38.0568C38.3638 26.3836 38.6539 26.2536 38.866 26.0337C39.0781 25.8138 39.1957 25.5211 39.194 25.2173V20.6269C39.1954 20.3224 39.0749 20.0297 38.8587 19.8128C38.6425 19.596 38.3482 19.4726 38.0402 19.4697H38.0568ZM37.5379 24.737H33.486V21.1017H37.5379V24.737ZM45.9894 23.7436L41.9541 19.4806H40.4139V26.3963H42.07V21.9696L46.1274 26.3963H47.6455V19.4806H45.9894V23.7436ZM56.4061 21.6094V20.6269C56.4061 20.3219 56.2843 20.0292 56.0672 19.8125C55.8501 19.5958 55.5553 19.4726 55.2468 19.4697H50.1737C49.8653 19.4726 49.5704 19.5958 49.3533 19.8125C49.1363 20.0292 49.0145 20.3219 49.0145 20.6269V25.2173C49.013 25.5248 49.1336 25.8206 49.3504 26.0411C49.5672 26.2616 49.8628 26.3891 50.1737 26.3963H55.2468C55.5573 26.3877 55.8521 26.2598 56.0686 26.0396C56.2851 25.8194 56.4062 25.5244 56.4061 25.2173V22.117H52.5033V23.7545H54.7445V24.7315H50.6761V21.1017H54.7445V21.6094H56.4061ZM5.69715 19.4806H0.370117V26.3963H2.02619V23.6999H5.70267C6.01063 23.6984 6.30548 23.5765 6.52272 23.3606C6.73997 23.1448 6.86192 22.8527 6.86192 22.5482V20.6323C6.86192 20.3278 6.73997 20.0357 6.52272 19.8199C6.30548 19.6041 6.01063 19.4821 5.70267 19.4806H5.69715ZM5.18929 22.0679H2.02067V21.1127H5.18929V22.0679ZM21.75 24.7424H18.2171V19.4806H16.561V25.2391C16.561 25.5441 16.6828 25.8368 16.8998 26.0535C17.1169 26.2702 17.4118 26.3934 17.7202 26.3963H22.2413C22.5498 26.3934 22.8446 26.2702 23.0617 26.0535C23.2788 25.8368 23.4006 25.5441 23.4006 25.2391V19.4806H21.7445L21.75 24.7424ZM13.4365 22.0679H9.57236V19.4806H7.91629V26.3963H9.57236V23.7163H13.4365V26.3963H15.0926V19.4806H13.4365V22.0679ZM26.9335 19.4806H25.2774V26.3963H31.1841V24.7588H26.9446L26.9335 19.4806Z" fill="#126269"/>
<path d="M7.57377 49.9905C3.41151 49.9905 0.596186 47.447 0.0552024 45.0781L0 44.8106L1.45182 44.2102L1.52911 44.5432C2.12529 47.2723 5.09518 48.484 7.60137 48.484C10.1076 48.484 12.6966 47.1577 12.6966 44.2102C12.6966 42.0651 11.4435 40.6787 8.97039 40.0892L5.69689 39.3251C2.40682 38.5882 0.364336 36.5304 0.364336 33.9705C0.364336 30.439 3.5716 28.5941 6.73469 28.5941C10.781 28.5941 12.807 31.0831 13.359 33.2173L13.4142 33.4574L11.9844 34.0033L11.9127 33.6703C11.3607 31.1868 8.91519 30.0733 6.72917 30.0733C4.41619 30.0897 1.98729 31.296 1.98729 33.9432C1.98729 35.6517 3.64336 37.2182 6.03914 37.764L9.35129 38.5282C12.6193 39.2978 14.3471 41.2573 14.3471 44.1829C14.3195 48.031 10.9246 49.9905 7.57377 49.9905Z" fill="#C78325"/>
<path d="M31.4671 49.4689V41.0632C31.4671 40.3427 31.2574 38.0011 28.558 38.0011C27.1558 38.0011 25.6488 38.869 25.6488 41.2761V49.4635H23.9927V41.0632C23.9927 38.3013 22.011 38.0011 21.1609 38.0011C19.7477 38.0011 18.2186 39.3002 18.2186 41.6963V49.4689H16.5625V37.0295H18.2186V37.9793C18.589 37.5242 19.057 37.1559 19.5886 36.9011C20.1203 36.6463 20.7025 36.5112 21.2933 36.5055C22.0249 36.4717 22.751 36.644 23.3873 37.0026C24.0235 37.3611 24.5436 37.891 24.887 38.5305C25.2818 37.8917 25.8407 37.3678 26.5069 37.0121C27.1731 36.6564 27.9227 36.4816 28.6794 36.5055C30.744 36.5055 33.1453 37.6954 33.1453 41.0632V49.4689H31.4671Z" fill="#C78325"/>
<path d="M37.5809 37.0287H35.9414V49.4626H37.5809V37.0287Z" fill="#C78325"/>
<path d="M53.4637 52.1957H51.8242V64.6296H53.4637V52.1957Z" fill="#C78325"/>
<path d="M60.1121 64.6351L54.2109 52.1957H56.0271L60.8794 62.4299L65.7317 52.1957H67.5478L61.6522 64.6351H60.1121Z" fill="#C78325"/>
<path d="M81.92 64.637V57.1537C81.92 54.4246 79.9548 53.1965 78.1331 53.1965C77.6075 53.1797 77.0841 53.2713 76.5963 53.4656C76.1085 53.6598 75.6669 53.9524 75.2998 54.3247C74.9326 54.697 74.6479 55.1408 74.4638 55.6279C74.2796 56.1149 74.2001 56.6346 74.2303 57.1537V64.637H72.5742V52.1976H74.2303V53.4039C74.7184 52.8498 75.323 52.4078 76.002 52.1089C76.6809 51.8101 77.4176 51.6615 78.1607 51.6736C78.8848 51.658 79.6045 51.7894 80.2753 52.0597C80.9461 52.3299 81.5537 52.7332 82.0607 53.2447C82.5676 53.7562 82.9632 54.3651 83.2229 55.0336C83.4826 55.7022 83.6009 56.4163 83.5705 57.1319V64.6152L81.92 64.637Z" fill="#C78325"/>
<path d="M50.3512 50.0729C49.4502 50.0563 48.5605 49.8711 47.7291 49.5271C46.248 48.9055 45.0279 47.7993 44.2734 46.3941L44.7151 46.1212C44.8812 46.0192 45.0717 45.9627 45.2671 45.9574C45.4367 45.9579 45.604 45.9959 45.7569 46.0686C45.9097 46.1414 46.0441 46.247 46.1503 46.3777C46.6254 47.0346 47.2521 47.57 47.9784 47.9393C48.7047 48.3087 49.5096 48.5013 50.3264 48.5013C51.1431 48.5013 51.9481 48.3087 52.6744 47.9393C53.4007 47.57 54.0274 47.0346 54.5024 46.3777C54.6064 46.2459 54.7396 46.1394 54.8918 46.0665C55.044 45.9937 55.2111 45.9563 55.3802 45.9574C55.5756 45.9627 55.7661 46.0192 55.9322 46.1212L56.3848 46.3886C55.6522 47.7906 54.456 48.902 52.9954 49.538C52.1642 49.8825 51.2744 50.0678 50.3733 50.0839L50.3512 50.0729Z" fill="#38626A"/>
<path d="M70.0692 52.1957H68.4297V64.6296H70.0692V52.1957Z" fill="#C78325"/>
<path d="M93.4429 29.8622C90.9257 29.4256 81.8946 30.6482 70.8099 39.1413C78.8032 25.4519 75.469 14.8902 74.3925 12.7997C74.3613 12.7379 74.3151 12.6847 74.258 12.6448C74.201 12.6049 74.1349 12.5795 74.0656 12.5709C73.9963 12.5622 73.9259 12.5706 73.8606 12.5953C73.7954 12.62 73.7373 12.6602 73.6915 12.7124C71.1356 15.638 71.3178 22.9903 71.798 26.9038C72.6316 33.8959 70.7878 37.7494 70.0702 38.9557C70.0702 38.8192 70.0702 37.673 70.0702 35.9427V15.7144C70.0727 15.0723 69.8916 14.4427 69.5478 13.898C69.204 13.3533 68.7115 12.9158 68.1271 12.6359L42.8499 0.354838C42.3385 0.104385 41.7723 -0.01674 41.202 0.00231164C40.6317 0.0213633 40.075 0.179997 39.5819 0.464003L18.3069 12.625C17.7785 12.9254 17.3392 13.3578 17.033 13.879C16.7269 14.4001 16.5646 14.9916 16.5625 15.5943V17.0408H18.2186V15.5943C18.2196 15.2768 18.3048 14.9651 18.4656 14.6903C18.6263 14.4154 18.8571 14.187 19.1349 14.0278L40.3989 1.86678C40.6595 1.71651 40.9537 1.63239 41.2552 1.62191C41.5567 1.61143 41.8561 1.67493 42.1267 1.80674L67.3984 14.0878C67.7088 14.2367 67.97 14.4695 68.1518 14.7594C68.3336 15.0493 68.4284 15.3843 68.4252 15.7253V36.0901C66.5096 26.4344 61.4862 20.9816 59.6701 19.9555C59.6061 19.9204 59.5331 19.9052 59.4603 19.9118C59.3705 19.9215 59.2868 19.9615 59.2234 20.0252C59.1601 20.0889 59.1209 20.1722 59.1125 20.2611C58.7095 23.8363 62.2756 29.4583 64.7045 31.9964C67.691 35.1513 69.2477 38.9721 67.9339 41.7776C65.6374 46.6901 57.9312 50.1124 53.8076 50.4726C53.5592 50.4726 53.653 50.7346 53.8076 50.7346C58.4547 50.6192 62.9008 48.8363 66.3164 45.7185C67.6495 44.4107 68.8943 43.0176 70.0426 41.5484C71.7428 39.5234 75.2868 37.5529 79.841 37.4165C84.7651 37.2636 91.555 34.0706 93.7851 30.5609C93.8252 30.4948 93.848 30.4199 93.8515 30.343C93.8549 30.266 93.8389 30.1894 93.805 30.1201C93.771 30.0508 93.7201 29.9909 93.6569 29.9459C93.5937 29.9009 93.5202 29.8721 93.4429 29.8622Z" fill="#126269"/>
</svg>
