<svg width="24" height="24" viewBox="0 0 24 24" fill="none" xmlns="http://www.w3.org/2000/svg">
<path d="M3.73288 9C2.63973 9.85463 2 10.8872 2 12C2 14.9456 6.477 17.3333 12 17.3333C17.523 17.3333 22 14.9456 22 12C22 9.05429 17.523 6.66663 12 6.66663C11.6664 6.66645 11.3329 6.67532 11 6.69323" stroke="#4F4F4F" stroke-width="2" stroke-miterlimit="10" stroke-linecap="round" stroke-linejoin="round"/>
<path d="M17.3066 13C17.3245 12.6671 17.3334 12.3336 17.3332 12C17.3332 6.477 14.9455 2 11.9998 2C9.05417 2 6.6665 6.477 6.6665 12C6.6665 17.523 9.05417 22 11.9998 22C13.2004 22 14.3076 21.2553 15.1987 20" stroke="#4F4F4F" stroke-width="2" stroke-miterlimit="10" stroke-linecap="round" stroke-linejoin="round"/>
</svg>
