<svg width="32" height="32" viewBox="0 0 32 32" fill="none" xmlns="http://www.w3.org/2000/svg">
<path d="M21.4535 16.9091V9.18182C21.4535 8.33795 21.1183 7.52864 20.5215 6.93193C19.9248 6.33523 19.1155 6 18.2717 6V6C17.4278 6 16.6185 6.33523 16.0218 6.93193C15.4251 7.52864 15.0898 8.33795 15.0898 9.18182V9.63636" stroke="#229099" stroke-width="2" stroke-miterlimit="10" stroke-linecap="round" stroke-linejoin="round"/>
<path d="M10.5469 23.2725V25.9997" stroke="#229099" stroke-width="2" stroke-miterlimit="10" stroke-linecap="round" stroke-linejoin="round"/>
<path d="M21.4531 23.2725V25.9997" stroke="#229099" stroke-width="2" stroke-miterlimit="10" stroke-linecap="round" stroke-linejoin="round"/>
<path d="M6 16.9092V19.6365C6 20.6009 6.38312 21.5258 7.06507 22.2077C7.74702 22.8897 8.67194 23.2728 9.63636 23.2728H22.3636C23.3281 23.2728 24.253 22.8897 24.9349 22.2077C25.6169 21.5258 26 20.6009 26 19.6365V16.9092H6Z" stroke="#229099" stroke-width="2" stroke-miterlimit="10" stroke-linecap="round" stroke-linejoin="round"/>
</svg>
