<svg width="22" height="22" viewBox="0 0 22 22" fill="none" xmlns="http://www.w3.org/2000/svg">
<path d="M16.4535 11.9091V4.18182C16.4535 3.33795 16.1183 2.52864 15.5215 1.93193C14.9248 1.33523 14.1155 1 13.2717 1V1C12.4278 1 11.6185 1.33523 11.0218 1.93193C10.4251 2.52864 10.0898 3.33795 10.0898 4.18182V4.63636" stroke="white" stroke-width="2" stroke-miterlimit="10" stroke-linecap="round" stroke-linejoin="round"/>
<path d="M5.54688 18.2725V20.9997" stroke="white" stroke-width="2" stroke-miterlimit="10" stroke-linecap="round" stroke-linejoin="round"/>
<path d="M16.4531 18.2725V20.9997" stroke="white" stroke-width="2" stroke-miterlimit="10" stroke-linecap="round" stroke-linejoin="round"/>
<path d="M1 11.9102V14.6374C1 15.6019 1.38312 16.5268 2.06507 17.2087C2.74702 17.8907 3.67194 18.2738 4.63636 18.2738H17.3636C18.3281 18.2738 19.253 17.8907 19.9349 17.2087C20.6169 16.5268 21 15.6019 21 14.6374V11.9102H1Z" stroke="white" stroke-width="2" stroke-miterlimit="10" stroke-linecap="round" stroke-linejoin="round"/>
</svg>
