<svg width="16" height="16" viewBox="0 0 16 16" fill="none" xmlns="http://www.w3.org/2000/svg">
<path d="M10.0332 3.33317C10.6843 3.46021 11.2828 3.77868 11.7519 4.24779C12.221 4.71691 12.5395 5.31535 12.6665 5.9665M10.0332 0.666504C11.386 0.816795 12.6476 1.42262 13.6107 2.38451C14.5738 3.3464 15.1812 4.60718 15.3332 5.95984M14.6665 11.2798V13.2798C14.6673 13.4655 14.6292 13.6493 14.5549 13.8194C14.4805 13.9895 14.3714 14.1422 14.2346 14.2677C14.0978 14.3933 13.9362 14.4888 13.7604 14.5483C13.5845 14.6078 13.3981 14.6299 13.2132 14.6132C11.1617 14.3903 9.19119 13.6893 7.45986 12.5665C5.84908 11.5429 4.48342 10.1773 3.45986 8.5665C2.33318 6.82731 1.63202 4.84717 1.41319 2.7865C1.39653 2.60215 1.41844 2.41634 1.47753 2.24092C1.53661 2.0655 1.63157 1.9043 1.75637 1.76758C1.88117 1.63087 2.03306 1.52164 2.20239 1.44685C2.37171 1.37206 2.55475 1.33334 2.73986 1.33317H4.73986C5.0634 1.32999 5.37705 1.44456 5.62237 1.65553C5.86768 1.8665 6.02791 2.15947 6.07319 2.47984C6.15761 3.11988 6.31416 3.74832 6.53986 4.35317C6.62956 4.59179 6.64897 4.85111 6.5958 5.10042C6.54263 5.34973 6.4191 5.57858 6.23986 5.75984L5.39319 6.6065C6.34223 8.27553 7.72416 9.65747 9.39319 10.6065L10.2399 9.75984C10.4211 9.58059 10.65 9.45707 10.8993 9.4039C11.1486 9.35073 11.4079 9.37014 11.6465 9.45984C12.2514 9.68554 12.8798 9.84209 13.5199 9.9265C13.8437 9.97219 14.1395 10.1353 14.3509 10.3848C14.5623 10.6344 14.6746 10.9529 14.6665 11.2798Z" stroke="#05626A" stroke-linecap="round" stroke-linejoin="round"/>
</svg>
