<svg width="16" height="16" viewBox="0 0 16 16" fill="none" xmlns="http://www.w3.org/2000/svg">
<g clip-path="url(#clip0)">
<path d="M10.0332 3.33332C10.6843 3.46037 11.2828 3.77883 11.7519 4.24795C12.221 4.71707 12.5395 5.3155 12.6665 5.96666M10.0332 0.666656C11.386 0.816947 12.6476 1.42277 13.6107 2.38466C14.5738 3.34655 15.1812 4.60733 15.3332 5.95999M14.6665 11.28V13.28C14.6673 13.4657 14.6292 13.6494 14.5549 13.8196C14.4805 13.9897 14.3714 14.1424 14.2346 14.2679C14.0978 14.3934 13.9362 14.489 13.7604 14.5485C13.5845 14.6079 13.3981 14.63 13.2132 14.6133C11.1617 14.3904 9.19119 13.6894 7.45985 12.5667C5.84907 11.5431 4.48341 10.1774 3.45985 8.56666C2.33317 6.82746 1.63202 4.84732 1.41319 2.78666C1.39653 2.6023 1.41844 2.4165 1.47752 2.24107C1.5366 2.06565 1.63157 1.90445 1.75636 1.76774C1.88116 1.63103 2.03306 1.5218 2.20238 1.447C2.37171 1.37221 2.55475 1.3335 2.73985 1.33332H4.73985C5.06339 1.33014 5.37705 1.44471 5.62236 1.65568C5.86767 1.86665 6.02791 2.15962 6.07319 2.47999C6.1576 3.12003 6.31415 3.74847 6.53985 4.35332C6.62955 4.59194 6.64896 4.85127 6.59579 5.10058C6.54262 5.34989 6.4191 5.57873 6.23985 5.75999L5.39319 6.60666C6.34222 8.27569 7.72416 9.65762 9.39319 10.6067L10.2399 9.75999C10.4211 9.58075 10.65 9.45722 10.8993 9.40405C11.1486 9.35088 11.4079 9.37029 11.6465 9.45999C12.2514 9.68569 12.8798 9.84224 13.5199 9.92666C13.8437 9.97234 14.1395 10.1355 14.3509 10.385C14.5623 10.6345 14.6746 10.953 14.6665 11.28Z" stroke="#05626A" stroke-width="1.5" stroke-linecap="round" stroke-linejoin="round"/>
</g>
<defs>
<clipPath id="clip0">
<rect width="16" height="16" fill="white"/>
</clipPath>
</defs>
</svg>
