<svg width="16" height="16" viewBox="0 0 16 16" fill="none" xmlns="http://www.w3.org/2000/svg">
<path d="M13.2 12.5333C13.9333 12.5333 14.5333 11.9333 14.5333 11.2V4.53328C14.5333 3.79995 13.9333 3.19995 13.2 3.19995H2.53328C1.79995 3.19995 1.19995 3.79995 1.19995 4.53328V11.2C1.19995 11.9333 1.79995 12.5333 2.53328 12.5333H13.2Z" stroke="#05626A" stroke-width="1.5" stroke-miterlimit="10" stroke-linecap="round" stroke-linejoin="round"/>
<path d="M7.86654 9.19999C8.60292 9.19999 9.19987 8.60304 9.19987 7.86666C9.19987 7.13028 8.60292 6.53333 7.86654 6.53333C7.13016 6.53333 6.5332 7.13028 6.5332 7.86666C6.5332 8.60304 7.13016 9.19999 7.86654 9.19999Z" stroke="#05626A" stroke-width="1.5" stroke-miterlimit="10" stroke-linecap="round" stroke-linejoin="round"/>
<path d="M11.8667 10.5333H12.5334" stroke="#05626A" stroke-width="1.5" stroke-miterlimit="10" stroke-linecap="round" stroke-linejoin="round"/>
<path d="M3.19995 5.19995H3.86662" stroke="#05626A" stroke-width="1.5" stroke-miterlimit="10" stroke-linecap="round" stroke-linejoin="round"/>
</svg>
