<svg width="24" height="24" viewBox="0 0 24 24" fill="none" xmlns="http://www.w3.org/2000/svg">
<path d="M17.2002 17.8H14.2002C13.9002 17.8 13.7002 17.6 13.7002 17.3V15.3C13.7002 15 13.9002 14.8 14.2002 14.8H17.2002C17.5002 14.8 17.7002 15 17.7002 15.3V17.3C17.8002 17.5 17.5002 17.8 17.2002 17.8Z" stroke="#05626A" stroke-width="1.5" stroke-miterlimit="10" stroke-linecap="round" stroke-linejoin="round"/>
<path d="M6.7998 21.8V16.8C6.7998 15.7 7.6998 14.8 8.7998 14.8C9.8998 14.8 10.7998 15.7 10.7998 16.8V21.8" stroke="#05626A" stroke-width="1.5" stroke-miterlimit="10" stroke-linecap="round" stroke-linejoin="round"/>
<path d="M3.7998 11.2V19.7C3.7998 20.8 4.6998 21.7 5.7998 21.7H18.7998C19.8998 21.7 20.7998 20.8 20.7998 19.7V11.2" stroke="#05626A" stroke-width="1.5" stroke-miterlimit="10" stroke-linecap="round" stroke-linejoin="round"/>
<path d="M22.7998 8.80005C22.7998 10.2 21.6998 11.3 20.2998 11.3C18.8998 11.3 17.7998 10.2 17.7998 8.80005H17.4998C17.4998 10.2 16.3998 11.3 14.9998 11.3C13.5998 11.3 12.4998 10.2 12.4998 8.80005H12.1998C12.1998 10.2 11.0998 11.3 9.6998 11.3C8.2998 11.3 7.0998 10.1 7.0998 8.80005H6.7998C6.7998 10.2 5.6998 11.3 4.2998 11.3C2.8998 11.3 1.7998 10.1 1.7998 8.80005" stroke="#05626A" stroke-width="1.5" stroke-miterlimit="10" stroke-linecap="round" stroke-linejoin="round"/>
<path d="M1.7998 8.80005L4.1998 3.90005C4.4998 3.20005 5.1998 2.80005 5.9998 2.80005H18.4998C19.2998 2.80005 19.9998 3.20005 20.2998 3.90005L22.6998 8.80005" stroke="#05626A" stroke-width="1.5" stroke-miterlimit="10" stroke-linecap="round" stroke-linejoin="round"/>
</svg>
