<svg width="32" height="32" viewBox="0 0 32 32" fill="none" xmlns="http://www.w3.org/2000/svg">
<path d="M18.0223 20.2656H4.82812V9.70312H27.5781V20.2656H25.1406" stroke="#19232E" stroke-miterlimit="10"/>
<path d="M9.70312 9.70312V7.26562C9.70312 6.36822 10.4307 5.64062 11.3281 5.64062C12.2255 5.64062 12.9531 6.36822 12.9531 7.26562V9.70312" stroke="#19232E" stroke-miterlimit="10" stroke-linecap="square"/>
<path d="M12.9531 9.70312V6.45312C12.9531 5.55572 13.6807 4.82812 14.5781 4.82812C15.4755 4.82812 16.2031 5.55572 16.2031 6.45312V9.70312" stroke="#19232E" stroke-miterlimit="10" stroke-linecap="square"/>
<path d="M16.2031 9.70312V5.64062C16.2031 4.74322 16.9307 4.01562 17.8281 4.01562C18.7255 4.01562 19.4531 4.74322 19.4531 5.64062V9.70312" stroke="#19232E" stroke-miterlimit="10" stroke-linecap="square"/>
<path d="M19.4531 9.70312V6.45312C19.4531 5.55572 20.1807 4.82812 21.0781 4.82812C21.9755 4.82812 22.7031 5.55572 22.7031 6.45312V9.70312" stroke="#19232E" stroke-miterlimit="10" stroke-linecap="square"/>
<path d="M16.2031 17.0156C17.325 17.0156 18.2344 16.1062 18.2344 14.9844C18.2344 13.8625 17.325 12.9531 16.2031 12.9531C15.0813 12.9531 14.1719 13.8625 14.1719 14.9844C14.1719 16.1062 15.0813 17.0156 16.2031 17.0156Z" stroke="#19232E" stroke-miterlimit="10" stroke-linecap="square"/>
<path d="M11.3281 12.9531H8.07812" stroke="#19232E" stroke-miterlimit="10" stroke-linecap="square"/>
<path d="M9.70312 20.2656V20.6719C9.70312 24.9347 13.1591 28.3906 17.4219 28.3906C21.6847 28.3906 25.1406 24.9347 25.1406 20.6719V20.2656V12.9531C23.3048 12.9531 21.8906 14.3673 21.8906 16.2031V18.6406C19.3853 18.6406 17.0156 20.4009 17.0156 22.7031" stroke="#19232E" stroke-miterlimit="10" stroke-linecap="square"/>
</svg>
