<svg width="32" height="32" viewBox="0 0 32 32" fill="none" xmlns="http://www.w3.org/2000/svg">
<path d="M26.6312 26.6314L22.3438 27.2439L22.9563 22.9564L26.6312 26.6314Z" stroke="#19232E" stroke-miterlimit="10" stroke-linecap="round" stroke-linejoin="round"/>
<path d="M9.48207 9.48123L10.0946 5.19373L5.80707 5.80623L9.48207 9.48123Z" stroke="#19232E" stroke-miterlimit="10" stroke-linecap="round" stroke-linejoin="round"/>
<path d="M24.8812 24.8813C26.5946 23.1681 27.7615 20.9852 28.2342 18.6089C28.7069 16.2325 28.4644 13.7693 27.5371 11.5308C26.6099 9.29225 25.0396 7.379 23.0249 6.03297C21.0103 4.68693 18.6417 3.96858 16.2188 3.96875" stroke="#19232E" stroke-miterlimit="10" stroke-linecap="round" stroke-linejoin="round"/>
<path d="M7.55714 7.55627C5.84377 9.26947 4.67693 11.4523 4.20418 13.8287C3.73144 16.2051 3.97403 18.6683 4.90128 20.9068C5.82853 23.1453 7.39878 25.0585 9.41344 26.4046C11.4281 27.7506 13.7967 28.469 16.2196 28.4688" stroke="#19232E" stroke-miterlimit="10" stroke-linecap="round" stroke-linejoin="round"/>
<path d="M16.2188 7.46875V24.9688" stroke="#19232E" stroke-miterlimit="10" stroke-linecap="round" stroke-linejoin="round"/>
<path d="M20.5957 10.9687C18.6068 9.93528 12.2185 9.15566 12.2185 12.7117C12.2185 16.9685 20.1731 15.4679 20.1731 19.2225C20.1731 22.9772 15.0027 22.6972 11.4231 21.4765" stroke="#19232E" stroke-miterlimit="10" stroke-linecap="round" stroke-linejoin="round"/>
</svg>
