<svg width="40" height="40" viewBox="0 0 40 40" fill="none" xmlns="http://www.w3.org/2000/svg">
<path fill-rule="evenodd" clip-rule="evenodd" d="M23.3333 0L36.6667 13.3333V35.3333C36.6667 37.9107 34.5773 40 32 40H8.00001C5.42268 40 3.33334 37.9107 3.33334 35.3333V4.66667C3.33334 2.08934 5.42268 0 8.00001 0H23.3333Z" fill="#05626A"/>
<path fill-rule="evenodd" clip-rule="evenodd" d="M36.6667 13.3335H28.2357C25.6584 13.3335 23.3334 11.0085 23.3334 8.43113V0.000162125L36.6667 13.3335Z" fill="white" fill-opacity="0.4"/>
<path fill-rule="evenodd" clip-rule="evenodd" d="M23.3333 18.3335H10V20.0002H23.3333V18.3335ZM23.3333 21.6669H10V23.3336H23.3333V21.6669ZM10 25.0001H23.3333V26.6667H10V25.0001ZM16.6667 28.3335H10V30.0002H16.6667V28.3335Z" fill="white"/>
</svg>
