<svg width="40" height="40" viewBox="0 0 40 40" fill="none" xmlns="http://www.w3.org/2000/svg">
<path d="M23.3332 3.33325H9.99984C9.11578 3.33325 8.26794 3.68444 7.64281 4.30956C7.01769 4.93468 6.6665 5.78253 6.6665 6.66659V33.3333C6.6665 34.2173 7.01769 35.0652 7.64281 35.6903C8.26794 36.3154 9.11578 36.6666 9.99984 36.6666H29.9998C30.8839 36.6666 31.7317 36.3154 32.3569 35.6903C32.982 35.0652 33.3332 34.2173 33.3332 33.3333V13.3333L23.3332 3.33325Z" stroke="white" stroke-width="3" stroke-linecap="round" stroke-linejoin="round"/>
<path d="M23.3335 3.33325V13.3333H33.3335" stroke="white" stroke-width="3" stroke-linecap="round" stroke-linejoin="round"/>
<path d="M26.6668 21.6667H13.3335" stroke="white" stroke-width="3" stroke-linecap="round" stroke-linejoin="round"/>
<path d="M26.6668 28.3333H13.3335" stroke="white" stroke-width="3" stroke-linecap="round" stroke-linejoin="round"/>
<path d="M16.6668 15H15.0002H13.3335" stroke="white" stroke-width="3" stroke-linecap="round" stroke-linejoin="round"/>
</svg>
