<svg width="24" height="24" viewBox="0 0 24 24" fill="none" xmlns="http://www.w3.org/2000/svg">
<path d="M16.2002 6.59961H21.0002" stroke="#2497A0" stroke-width="2" stroke-miterlimit="10" stroke-linecap="round" stroke-linejoin="round"/>
<path d="M3 6.59961H5.4" stroke="#2497A0" stroke-width="2" stroke-miterlimit="10" stroke-linecap="round" stroke-linejoin="round"/>
<path d="M7.8 17.4004H3" stroke="#2497A0" stroke-width="2" stroke-miterlimit="10" stroke-linecap="round" stroke-linejoin="round"/>
<path d="M21.0001 17.4004H18.6001" stroke="#2497A0" stroke-width="2" stroke-miterlimit="10" stroke-linecap="round" stroke-linejoin="round"/>
<path d="M8.9999 10.2C10.9881 10.2 12.5999 8.58822 12.5999 6.6C12.5999 4.61177 10.9881 3 8.9999 3C7.01168 3 5.3999 4.61177 5.3999 6.6C5.3999 8.58822 7.01168 10.2 8.9999 10.2Z" stroke="#2497A0" stroke-width="2" stroke-miterlimit="10" stroke-linecap="round" stroke-linejoin="round"/>
<path d="M14.9999 20.9998C16.9881 20.9998 18.5999 19.388 18.5999 17.3998C18.5999 15.4116 16.9881 13.7998 14.9999 13.7998C13.0117 13.7998 11.3999 15.4116 11.3999 17.3998C11.3999 19.388 13.0117 20.9998 14.9999 20.9998Z" stroke="#2497A0" stroke-width="2" stroke-miterlimit="10" stroke-linecap="round" stroke-linejoin="round"/>
</svg>
