<svg width="24" height="24" viewBox="0 0 24 24" fill="none" xmlns="http://www.w3.org/2000/svg">
<path d="M16.05 7.59998C16.05 7.73805 15.9381 7.84998 15.8 7.84998C15.6619 7.84998 15.55 7.73805 15.55 7.59998C15.55 7.4619 15.6619 7.34998 15.8 7.34998C15.9381 7.34998 16.05 7.4619 16.05 7.59998Z" fill="#AFAFAF" stroke="#AFAFAF" stroke-width="1.5"/>
<path d="M16.05 11.8999C16.05 12.038 15.9381 12.1499 15.8 12.1499C15.6619 12.1499 15.55 12.038 15.55 11.8999C15.55 11.7618 15.6619 11.6499 15.8 11.6499C15.9381 11.6499 16.05 11.7618 16.05 11.8999Z" fill="#AFAFAF" stroke="#AFAFAF" stroke-width="1.5"/>
<path d="M16.05 16.2999C16.05 16.438 15.9381 16.5499 15.8 16.5499C15.6619 16.5499 15.55 16.438 15.55 16.2999C15.55 16.1619 15.6619 16.0499 15.8 16.0499C15.9381 16.0499 16.05 16.1619 16.05 16.2999Z" fill="#AFAFAF" stroke="#AFAFAF" stroke-width="1.5"/>
<path d="M16.05 20.6C16.05 20.738 15.9381 20.85 15.8 20.85C15.6619 20.85 15.55 20.738 15.55 20.6C15.55 20.4619 15.6619 20.35 15.8 20.35C15.9381 20.35 16.05 20.4619 16.05 20.6Z" fill="#AFAFAF" stroke="#AFAFAF" stroke-width="1.5"/>
<path d="M19.4 3.59996C18.7 2.89996 17.6 2.59996 16.6 2.79996L3.99999 5.79996C2.69999 6.09996 1.79999 7.29996 1.79999 8.69996V10.3" stroke="#AFAFAF" stroke-width="1.5" stroke-miterlimit="10" stroke-linecap="round" stroke-linejoin="round"/>
<path d="M19.8 14.1C19.8 13.2 20.4 12.5 21.2 12.2C21.6 12.1 21.8 11.7 21.8 11.2V8.59998C21.8 7.49998 20.9 6.59998 19.8 6.59998H3.79999C2.69999 6.59998 1.79999 7.49998 1.79999 8.59998V11.2C1.79999 11.6 1.99999 12 2.39999 12.2C3.19999 12.5 3.79999 13.2 3.79999 14.1C3.79999 15 3.19999 15.7 2.39999 16C1.99999 16.1 1.79999 16.5 1.79999 17V19.6C1.79999 20.7 2.69999 21.6 3.79999 21.6H19.8C20.9 21.6 21.8 20.7 21.8 19.6V17C21.8 16.6 21.6 16.2 21.2 16C20.3 15.7 19.8 15 19.8 14.1Z" stroke="#AFAFAF" stroke-width="1.5" stroke-miterlimit="10" stroke-linecap="round" stroke-linejoin="round"/>
<path d="M7.79999 10.6H11.8" stroke="#AFAFAF" stroke-width="1.5" stroke-miterlimit="10" stroke-linecap="round" stroke-linejoin="round"/>
<path d="M7.79999 13.6H10.8" stroke="#AFAFAF" stroke-width="1.5" stroke-miterlimit="10" stroke-linecap="round" stroke-linejoin="round"/>
</svg>
