<svg width="16" height="16" viewBox="0 0 16 16" fill="none" xmlns="http://www.w3.org/2000/svg">
<path d="M2.48858 5.99992C1.75981 6.56967 1.33333 7.25807 1.33333 7.99989C1.33333 9.96367 4.31799 11.5554 8 11.5554C11.682 11.5554 14.6667 9.96367 14.6667 7.99989C14.6667 6.03612 11.682 4.44434 8 4.44434C7.77759 4.44422 7.55529 4.45013 7.33333 4.46207" stroke="#05626A" stroke-width="1.5" stroke-miterlimit="10" stroke-linecap="round" stroke-linejoin="round"/>
<path d="M11.5377 8.66634C11.5497 8.44438 11.5556 8.22208 11.5554 7.99967C11.5554 4.31767 9.96367 1.33301 7.99989 1.33301C6.03611 1.33301 4.44434 4.31767 4.44434 7.99967C4.44434 11.6817 6.03611 14.6663 7.99989 14.6663C8.80025 14.6663 9.5384 14.1699 10.1325 13.333" stroke="#05626A" stroke-width="1.5" stroke-miterlimit="10" stroke-linecap="round" stroke-linejoin="round"/>
</svg>
