<svg width="16" height="16" viewBox="0 0 16 16" fill="none" xmlns="http://www.w3.org/2000/svg">
<path d="M11.6357 8.60573V3.45422C11.6357 2.89164 11.4122 2.3521 11.0144 1.9543C10.6166 1.55649 10.077 1.33301 9.51445 1.33301V1.33301C8.95187 1.33301 8.41233 1.55649 8.01452 1.9543C7.61672 2.3521 7.39323 2.89164 7.39323 3.45422V3.75725" stroke="#05626A" stroke-width="1.5" stroke-miterlimit="10" stroke-linecap="round" stroke-linejoin="round"/>
<path d="M4.36459 12.8477V14.6658" stroke="#05626A" stroke-width="1.5" stroke-miterlimit="10" stroke-linecap="round" stroke-linejoin="round"/>
<path d="M11.6354 12.8477V14.6658" stroke="#05626A" stroke-width="1.5" stroke-miterlimit="10" stroke-linecap="round" stroke-linejoin="round"/>
<path d="M1.33334 8.60645V10.4246C1.33334 11.0676 1.58875 11.6842 2.04338 12.1388C2.49801 12.5935 3.11463 12.8489 3.75758 12.8489H12.2424C12.8854 12.8489 13.502 12.5935 13.9566 12.1388C14.4113 11.6842 14.6667 11.0676 14.6667 10.4246V8.60645H1.33334Z" fill="#05626A" stroke="#05626A" stroke-width="1.5" stroke-miterlimit="10" stroke-linecap="round" stroke-linejoin="round"/>
</svg>
