<svg width="16" height="16" viewBox="0 0 16 16" fill="none" xmlns="http://www.w3.org/2000/svg">
<path d="M5.66666 11.6667C5.66666 11.4667 5.8 11.3334 6 11.3334H8V9.33342H6C5.8 9.33342 5.66666 9.20008 5.66666 9.00008C5.66666 8.80008 5.8 8.66675 6 8.66675H8V6.66675H6C5.8 6.66675 5.66666 6.53341 5.66666 6.33342C5.66666 6.13341 5.8 6.00008 6 6.00008H8V4.00008H6C5.8 4.00008 5.66666 3.86675 5.66666 3.66675C5.66666 3.46675 5.8 3.33341 6 3.33341H8V1.33341C8 0.933415 7.73333 0.666748 7.33333 0.666748H3.33333C2.93333 0.666748 2.66666 0.933415 2.66666 1.33341V14.0001C2.66666 14.4001 2.93333 14.6667 3.33333 14.6667H7.33333C7.73333 14.6667 8 14.4001 8 14.0001V12.0001H6C5.8 12.0001 5.66666 11.8667 5.66666 11.6667Z" fill="#05626A"/>
<path d="M13.3333 1.00008C13.3333 0.800081 13.2 0.666748 13 0.666748H10.3333C10.1333 0.666748 10 0.800081 10 1.00008V3.00008H13.3333V1.00008Z" fill="#05626A"/>
<path d="M10 11.5334C10 11.6001 10 11.6667 10.0667 11.6667L11.4 14.0667C11.5333 14.2667 11.8667 14.2667 12 14.0667L13.3333 11.6667C13.3333 11.6001 13.4 11.5334 13.4 11.5334V3.66675H10.0667V11.5334H10Z" fill="#05626A"/>
</svg>
