<svg width="16" height="16" viewBox="0 0 16 16" fill="none" xmlns="http://www.w3.org/2000/svg">
<path d="M12.6667 2H3.33333C2.59695 2 2 2.59695 2 3.33333V12.6667C2 13.403 2.59695 14 3.33333 14H12.6667C13.403 14 14 13.403 14 12.6667V3.33333C14 2.59695 13.403 2 12.6667 2Z" stroke="#25282B" stroke-width="1.5" stroke-linecap="round" stroke-linejoin="round"/>
<path d="M5.66666 6.66699C6.21895 6.66699 6.66666 6.21928 6.66666 5.66699C6.66666 5.11471 6.21895 4.66699 5.66666 4.66699C5.11438 4.66699 4.66666 5.11471 4.66666 5.66699C4.66666 6.21928 5.11438 6.66699 5.66666 6.66699Z" fill="#25282B"/>
<path d="M14 10.0003L10.6667 6.66699L3.33334 14.0003" stroke="#25282B" stroke-width="1.5" stroke-linecap="round" stroke-linejoin="round"/>
</svg>
