<svg width="80" height="40" viewBox="0 0 80 40" fill="none" xmlns="http://www.w3.org/2000/svg">
<path d="M33.6278 12.1818V18H32.5739V12.1818H33.6278ZM39.5504 12.1818V18H38.6129L35.8714 14.0369H35.8232V18H34.7692V12.1818H35.7124L38.451 16.1477H38.5021V12.1818H39.5504ZM40.4432 13.0653V12.1818H45.0852V13.0653H43.2869V18H42.2415V13.0653H40.4432ZM45.9801 18V12.1818H49.7642V13.0653H47.0341V14.6449H49.5682V15.5284H47.0341V17.1165H49.7869V18H45.9801ZM50.8395 18V12.1818H53.0213C53.4683 12.1818 53.8433 12.2595 54.1463 12.4148C54.4512 12.5701 54.6813 12.7879 54.8366 13.0682C54.9938 13.3466 55.0724 13.6714 55.0724 14.0426C55.0724 14.4157 54.9929 14.7396 54.8338 15.0142C54.6766 15.2869 54.4446 15.4981 54.1378 15.6477C53.831 15.7955 53.4541 15.8693 53.0071 15.8693H51.4531V14.9943H52.8651C53.1264 14.9943 53.3404 14.9583 53.5071 14.8864C53.6738 14.8125 53.7969 14.7055 53.8764 14.5653C53.9579 14.4233 53.9986 14.2491 53.9986 14.0426C53.9986 13.8362 53.9579 13.66 53.8764 13.5142C53.795 13.3665 53.6709 13.2547 53.5043 13.179C53.3376 13.1013 53.1226 13.0625 52.8594 13.0625H51.8935V18H50.8395ZM53.8452 15.3636L55.2855 18H54.1094L52.6946 15.3636H53.8452ZM60.8239 12.1818V18H59.8864L57.1449 14.0369H57.0966V18H56.0426V12.1818H56.9858L59.7244 16.1477H59.7756V12.1818H60.8239ZM61.9723 18V12.1818H65.7564V13.0653H63.0263V14.6449H65.5604V15.5284H63.0263V17.1165H65.7791V18H61.9723ZM66.576 13.0653V12.1818H71.218V13.0653H69.4197V18H68.3743V13.0653H66.576ZM32.5739 28V22.1818H34.8011C35.2216 22.1818 35.571 22.2481 35.8494 22.3807C36.1297 22.5114 36.339 22.6903 36.4773 22.9176C36.6174 23.1449 36.6875 23.4025 36.6875 23.6903C36.6875 23.9271 36.642 24.1297 36.5511 24.2983C36.4602 24.465 36.3381 24.6004 36.1847 24.7045C36.0312 24.8087 35.8598 24.8835 35.6705 24.929V24.9858C35.8769 24.9972 36.0748 25.0606 36.2642 25.1761C36.4555 25.2898 36.6117 25.4508 36.733 25.6591C36.8542 25.8674 36.9148 26.1193 36.9148 26.4148C36.9148 26.7159 36.8419 26.9867 36.696 27.2273C36.5502 27.4659 36.3305 27.6544 36.0369 27.7926C35.7434 27.9309 35.3741 28 34.929 28H32.5739ZM33.6278 27.1193H34.7614C35.1439 27.1193 35.4195 27.0464 35.5881 26.9006C35.7585 26.7528 35.8438 26.5634 35.8438 26.3324C35.8438 26.16 35.8011 26.0047 35.7159 25.8665C35.6307 25.7263 35.5095 25.6165 35.3523 25.5369C35.1951 25.4555 35.0076 25.4148 34.7898 25.4148H33.6278V27.1193ZM33.6278 24.6562H34.6705C34.8523 24.6562 35.0161 24.6231 35.1619 24.5568C35.3078 24.4886 35.4223 24.393 35.5057 24.2699C35.5909 24.1449 35.6335 23.9972 35.6335 23.8267C35.6335 23.6013 35.554 23.4157 35.3949 23.2699C35.2377 23.1241 35.0038 23.0511 34.6932 23.0511H33.6278V24.6562ZM38.5788 28H37.4538L39.5021 22.1818H40.8033L42.8544 28H41.7294L40.1754 23.375H40.13L38.5788 28ZM38.6158 25.7188H41.6839V26.5653H38.6158V25.7188ZM48.402 22.1818V28H47.4645L44.723 24.0369H44.6747V28H43.6207V22.1818H44.5639L47.3026 26.1477H47.3537V22.1818H48.402ZM49.5504 28V22.1818H50.6044V24.8551H50.6754L52.9453 22.1818H54.2322L51.9822 24.7926L54.2521 28H52.9851L51.2493 25.5057L50.6044 26.267V28H49.5504ZM56.0185 22.1818V28H54.9645V22.1818H56.0185ZM61.9411 22.1818V28H61.0036L58.2621 24.0369H58.2138V28H57.1598V22.1818H58.103L60.8416 26.1477H60.8928V22.1818H61.9411ZM66.9872 24.0398C66.9399 23.8864 66.8745 23.7491 66.7912 23.6278C66.7098 23.5047 66.6113 23.3996 66.4957 23.3125C66.3821 23.2254 66.2514 23.16 66.1037 23.1165C65.956 23.071 65.795 23.0483 65.6207 23.0483C65.3082 23.0483 65.0298 23.1269 64.7855 23.2841C64.5412 23.4413 64.349 23.6723 64.2088 23.9773C64.0705 24.2803 64.0014 24.6496 64.0014 25.0852C64.0014 25.5246 64.0705 25.8968 64.2088 26.2017C64.3471 26.5066 64.5393 26.7386 64.7855 26.8977C65.0317 27.0549 65.3177 27.1335 65.6435 27.1335C65.9389 27.1335 66.1946 27.0767 66.4105 26.9631C66.6283 26.8494 66.7959 26.6884 66.9134 26.4801C67.0308 26.2699 67.0895 26.0237 67.0895 25.7415L67.3281 25.7784H65.7486V24.9545H68.1094V25.6534C68.1094 26.1515 68.0033 26.5824 67.7912 26.946C67.5791 27.3097 67.2874 27.59 66.9162 27.7869C66.545 27.982 66.1188 28.0795 65.6378 28.0795C65.1018 28.0795 64.6312 27.9593 64.2259 27.7188C63.8224 27.4763 63.5071 27.1326 63.2798 26.6875C63.0545 26.2405 62.9418 25.7102 62.9418 25.0966C62.9418 24.6269 63.008 24.2074 63.1406 23.8381C63.2751 23.4688 63.4626 23.1553 63.7031 22.8977C63.9437 22.6383 64.2259 22.4413 64.5497 22.3068C64.8736 22.1705 65.2259 22.1023 65.6065 22.1023C65.9285 22.1023 66.2287 22.1496 66.5071 22.2443C66.7855 22.3371 67.0327 22.4697 67.2486 22.642C67.4664 22.8144 67.6454 23.0189 67.7855 23.2557C67.9257 23.4924 68.0175 23.7538 68.0611 24.0398H66.9872Z" fill="#1F1F1F"/>
<rect x="0.5" y="0.5" width="79" height="39" rx="3.5" stroke="#E2E2E2"/>
<path d="M22 14.6667H9.99996C9.26358 14.6667 8.66663 15.2636 8.66663 16V24C8.66663 24.7364 9.26358 25.3333 9.99996 25.3333H22C22.7363 25.3333 23.3333 24.7364 23.3333 24V16C23.3333 15.2636 22.7363 14.6667 22 14.6667Z" stroke="#1F1F1F" stroke-linecap="round" stroke-linejoin="round"/>
<path d="M8.66663 18.6667H23.3333" stroke="#1F1F1F" stroke-linecap="round" stroke-linejoin="round"/>
</svg>
