<svg width="24" height="24" viewBox="0 0 24 24" fill="none" xmlns="http://www.w3.org/2000/svg">
<path d="M18 23.0001H6C3.8 23.0001 2 21.2001 2 19.0001V7.3001C2 6.6001 2.4 5.9001 3.1 5.5001L11.1 1.2001C11.7 0.900098 12.4 0.900098 13 1.2001L21 5.5001C21.7 5.8001 22.1 6.5001 22.1 7.3001V19.0001C22 21.2001 20.2 23.0001 18 23.0001Z" fill="#C98511"/>
<path d="M18.869 11.9003C17.9854 11.7516 14.8545 12.1605 10.9937 15.0599C13.7789 10.3949 12.6072 6.80788 12.2423 6.08304C12.1846 5.99012 12.0694 5.97153 11.9925 6.04587C11.109 7.04949 11.1666 9.53996 11.3395 10.8781C11.6276 13.2571 10.9937 14.5766 10.744 14.9855C10.2638 14.6138 10.1678 14.0005 10.1678 14.0005C9.49552 10.7108 7.7476 8.85229 7.11374 8.49916C7.09453 8.48058 7.05612 8.48058 7.03691 8.48058C6.97929 8.48058 6.92166 8.53634 6.92166 8.59209C6.78721 9.83732 8.01651 11.7516 8.86166 12.6252C9.89889 13.7031 10.4367 15.0041 9.97572 15.952C9.16899 17.6247 6.49909 18.7956 5.0585 18.9071C4.96246 18.9071 5.00087 19 5.0585 19C5.96127 19 7.80523 18.7026 9.41869 17.2901C9.86047 16.8998 10.2638 16.398 10.7056 15.8776C11.3011 15.19 12.5304 14.5209 14.1054 14.4651C15.8149 14.4094 18.1775 13.3314 18.965 12.1233C19.0418 12.0304 18.9842 11.9189 18.869 11.9003Z" fill="white"/>
</svg>
