<svg width="34" height="34" viewBox="0 0 34 34" fill="none" xmlns="http://www.w3.org/2000/svg">
<circle cx="17" cy="17" r="16" stroke="white" stroke-opacity="0.2"/>
<path d="M23.4016 13.4293C22.9201 13.6393 22.4108 13.7789 21.8896 13.8437C22.4386 13.5175 22.8492 13.0015 23.044 12.3933C22.5295 12.6981 21.9667 12.913 21.38 13.0285C20.6433 12.2438 19.5022 11.9884 18.5013 12.3842C17.5003 12.7799 16.8425 13.7466 16.8416 14.8229C16.8395 15.024 16.8599 15.2247 16.9024 15.4213C14.7909 15.3187 12.8232 14.3209 11.4928 12.6781C10.7927 13.8761 11.146 15.412 12.2992 16.1837C11.884 16.1736 11.4774 16.0638 11.1136 15.8637V15.8925C11.1167 17.1404 11.9946 18.215 13.2168 18.4669C12.9922 18.527 12.7604 18.5563 12.528 18.5541C12.3612 18.5572 12.1947 18.5422 12.0312 18.5093C12.3788 19.5765 13.3612 20.3088 14.4832 20.3373C13.5544 21.064 12.4088 21.4584 11.2296 21.4573C11.0197 21.4585 10.8099 21.4462 10.6016 21.4205C11.8016 22.1935 13.1997 22.6025 14.6272 22.5981C16.6119 22.6119 18.5194 21.8296 19.923 20.4263C21.3266 19.023 22.1093 17.1157 22.096 15.1309C22.096 15.0149 22.092 14.9029 22.0864 14.7917C22.6038 14.4211 23.0494 13.9595 23.4016 13.4293Z" fill="white"/>
</svg>
