<svg width="25" height="25" viewBox="0 0 25 25" fill="none" xmlns="http://www.w3.org/2000/svg">
<path fill-rule="evenodd" clip-rule="evenodd" d="M12.3997 4.64C14.653 4.64 16.173 5.61333 17.0397 6.42667L20.4264 3.12C18.3464 1.18667 15.6397 0 12.3997 0C7.70636 0 3.65302 2.69333 1.67969 6.61333L5.55969 9.62667C6.53302 6.73333 9.22636 4.64 12.3997 4.64Z" fill="#EA4335"/>
<path fill-rule="evenodd" clip-rule="evenodd" d="M23.9199 12.2668C23.9199 11.2801 23.8399 10.5601 23.6666 9.81348H12.3999V14.2668H19.0132C18.8799 15.3735 18.1599 17.0401 16.5599 18.1601L20.3466 21.0935C22.6132 19.0001 23.9199 15.9201 23.9199 12.2668Z" fill="#4285F4"/>
<path fill-rule="evenodd" clip-rule="evenodd" d="M5.57324 14.3743C5.3199 13.6276 5.17324 12.8276 5.17324 12.0009C5.17324 11.1743 5.3199 10.3743 5.5599 9.62759L1.6799 6.61426C0.866569 8.24092 0.399902 10.0676 0.399902 12.0009C0.399902 13.9343 0.866569 15.7609 1.6799 17.3876L5.57324 14.3743Z" fill="#FBBC05"/>
<path fill-rule="evenodd" clip-rule="evenodd" d="M12.4 24.0017C15.64 24.0017 18.36 22.935 20.3467 21.095L16.56 18.1617C15.5467 18.8683 14.1867 19.3617 12.4 19.3617C9.22669 19.3617 6.53336 17.2683 5.57336 14.375L1.69336 17.3883C3.66669 21.3083 7.70669 24.0017 12.4 24.0017Z" fill="#34A853"/>
</svg>
