<svg width="99" height="72" viewBox="0 0 99 72" fill="none" xmlns="http://www.w3.org/2000/svg">
<path d="M91.2554 71.9981C90.0739 71.9997 88.9127 71.6908 87.8883 71.1026C86.864 70.5144 86.0125 69.6674 85.4194 68.6467L85.2773 68.4011L86.6762 67.5933L86.7964 67.8498C87.2302 68.6553 87.8732 69.3293 88.6578 69.8009C89.4424 70.2725 90.3397 70.5243 91.2554 70.5298C92.6337 70.5097 93.9479 69.9445 94.9097 68.9582C95.8715 67.9719 96.4026 66.6449 96.3866 65.268V62.5771C95.796 63.3806 95.0229 64.0326 94.1308 64.4796C93.2388 64.9265 92.2533 65.1556 91.2554 65.148C90.3541 65.1736 89.4568 65.0184 88.6166 64.6916C87.7764 64.3648 87.0103 63.8729 86.3637 63.2452C85.7171 62.6175 85.2031 61.8666 84.8521 61.037C84.5012 60.2074 84.3203 59.3158 84.3203 58.4152C84.3203 57.5145 84.5012 56.623 84.8521 55.7934C85.2031 54.9638 85.7171 54.2129 86.3637 53.5852C87.0103 52.9574 87.7764 52.4656 88.6166 52.1388C89.4568 51.812 90.3541 51.6568 91.2554 51.6824C92.2543 51.6723 93.2412 51.9009 94.1338 52.349C95.0263 52.7972 95.7987 53.4519 96.3866 54.2587V52.1955H98.0259V65.2953C98.0172 67.0808 97.2992 68.7897 96.0297 70.0465C94.7601 71.3034 93.0429 72.0053 91.2554 71.9981ZM91.2554 53.1561C90.2079 53.129 89.1761 53.4145 88.292 53.9762C87.4078 54.5378 86.7114 55.3501 86.2918 56.3092C85.8722 57.2683 85.7485 58.3306 85.9365 59.3602C86.1246 60.3899 86.6157 61.3402 87.3472 62.0895C88.0788 62.8389 89.0174 63.3533 90.0432 63.5671C91.0689 63.7808 92.1352 63.6841 93.1057 63.2893C94.0761 62.8945 94.9066 62.2196 95.4911 61.3509C96.0755 60.4822 96.3873 59.4591 96.3866 58.4125C96.4012 57.0366 95.8694 55.711 94.9077 54.7258C93.9461 53.7407 92.6328 53.1763 91.2554 53.1561Z" fill="white"/>
<path d="M43.1133 43.9605V43.2455C43.1133 41.4635 43.822 39.7544 45.0835 38.4944C46.345 37.2343 48.056 36.5264 49.8401 36.5264C51.6241 36.5264 53.3351 37.2343 54.5966 38.4944C55.8581 39.7544 56.5668 41.4635 56.5668 43.2455V43.9605H43.1133ZM49.8401 37.9564C48.5922 37.9752 47.3925 38.4406 46.4589 39.2679C45.5254 40.0952 44.9199 41.2296 44.7526 42.465V42.4977H54.9384V42.465C54.7683 41.2303 54.16 40.0977 53.2243 39.2732C52.2886 38.4488 51.0877 37.9873 49.8401 37.9728V37.9564Z" fill="white"/>
<path d="M39.9961 64.6258L40.007 28.8414L41.6245 28.8359L41.619 63.1357L50.2037 63.1466V64.6258H39.9961Z" fill="white"/>
<path fill-rule="evenodd" clip-rule="evenodd" d="M37.6732 19.4697H32.6513C32.346 19.4726 32.0541 19.5958 31.8392 19.8125C31.6243 20.0292 31.5038 20.3219 31.5038 20.6269V25.2173C31.5023 25.5248 31.6217 25.8206 31.8363 26.0411C32.0509 26.2616 32.3436 26.3891 32.6513 26.3963H37.6732C37.9771 26.3836 38.2643 26.2536 38.4742 26.0337C38.6842 25.8138 38.8006 25.5211 38.7989 25.2173V20.6269C38.8003 20.3224 38.681 20.0297 38.467 19.8128C38.2529 19.596 37.9617 19.4726 37.6568 19.4697H37.6732ZM37.1595 24.737H33.1486V21.1017H37.1595V24.737ZM45.5257 23.7436L41.5311 19.4806H40.0065V26.3963H41.6459V21.9696L45.6623 26.3963H47.165V19.4806H45.5257V23.7436ZM55.8371 21.6094V20.6269C55.8371 20.3219 55.7166 20.0292 55.5017 19.8125C55.2868 19.5958 54.9949 19.4726 54.6896 19.4697H49.6677C49.3624 19.4726 49.0705 19.5958 48.8556 19.8125C48.6407 20.0292 48.5202 20.3219 48.5202 20.6269V25.2173C48.5187 25.5248 48.6381 25.8206 48.8527 26.0411C49.0673 26.2616 49.36 26.3891 49.6677 26.3963H54.6896C54.9969 26.3877 55.2888 26.2598 55.5031 26.0396C55.7174 25.8194 55.8372 25.5244 55.8371 25.2173V22.117H51.9737V23.7545H54.1923V24.7315H50.165V21.1017H54.1923V21.6094H55.8371ZM5.64041 19.4806H0.367188V26.3963H2.00653V23.6999H5.64588C5.95072 23.6984 6.24259 23.5765 6.45764 23.3606C6.67269 23.1448 6.79342 22.8527 6.79342 22.5482V20.6323C6.79342 20.3278 6.67269 20.0357 6.45764 19.8199C6.24259 19.6041 5.95072 19.4821 5.64588 19.4806H5.64041ZM5.13768 22.0679H2.00107V21.1127H5.13768V22.0679ZM21.5311 24.7424H18.0339V19.4806H16.3945V25.2391C16.3945 25.5441 16.515 25.8368 16.7299 26.0535C16.9448 26.2702 17.2367 26.3934 17.542 26.3963H22.0175C22.3228 26.3934 22.6147 26.2702 22.8296 26.0535C23.0445 25.8368 23.165 25.5441 23.165 25.2391V19.4806H21.5257L21.5311 24.7424ZM13.3016 22.0679H9.47648V19.4806H7.83713V26.3963H9.47648V23.7163H13.3016V26.3963H14.941V19.4806H13.3016V22.0679ZM26.6623 19.4806H25.0229V26.3963H30.8699V24.7588H26.6732L26.6623 19.4806Z" fill="white"/>
<path d="M7.49727 49.9902C3.37705 49.9902 0.590164 47.4466 0.0546448 45.0777L0 44.8103L1.43716 44.2099L1.51366 44.5428C2.10383 47.2719 5.04372 48.4837 7.52459 48.4837C10.0055 48.4837 12.5683 47.1573 12.5683 44.2099C12.5683 42.0648 11.3279 40.6784 8.87978 40.0889L5.63934 39.3247C2.38251 38.5878 0.360656 36.5301 0.360656 33.9701C0.360656 30.4386 3.53552 28.5938 6.66667 28.5938C10.6721 28.5938 12.6776 31.0827 13.224 33.2169L13.2787 33.4571L11.8634 34.0029L11.7923 33.6699C11.2459 31.1864 8.82514 30.0729 6.6612 30.0729C4.37158 30.0893 1.96721 31.2956 1.96721 33.9429C1.96721 35.6513 3.60656 37.2178 5.97814 37.7636L9.25683 38.5278C12.4918 39.2974 14.2022 41.2569 14.2022 44.1826C14.1749 48.0306 10.8142 49.9902 7.49727 49.9902Z" fill="white"/>
<path d="M31.1486 49.4676V41.0618C31.1486 40.3413 30.941 37.9997 28.2688 37.9997C26.8809 37.9997 25.3891 38.8676 25.3891 41.2747V49.4621H23.7497V41.0618C23.7497 38.3 21.788 37.9997 20.9464 37.9997C19.5475 37.9997 18.0339 39.2988 18.0339 41.695V49.4676H16.3945V37.0282H18.0339V37.9779C18.4006 37.5228 18.8638 37.1546 19.3901 36.8998C19.9164 36.6449 20.4927 36.5098 21.0776 36.5042C21.8017 36.4703 22.5206 36.6427 23.1504 37.0012C23.7802 37.3597 24.2951 37.8896 24.635 38.5292C25.0257 37.8904 25.579 37.3665 26.2385 37.0107C26.8979 36.655 27.64 36.4802 28.3891 36.5042C30.4328 36.5042 32.8098 37.6941 32.8098 41.0618V49.4676H31.1486Z" fill="white"/>
<path d="M37.2011 37.0283H35.5781V49.4623H37.2011V37.0283Z" fill="white"/>
<path d="M52.9237 52.1953H51.3008V64.6293H52.9237V52.1953Z" fill="white"/>
<path d="M59.5017 64.6347L53.6602 52.1953H55.458L60.2612 62.4296L65.0645 52.1953H66.8623L61.0263 64.6347H59.5017Z" fill="white"/>
<path d="M81.0912 64.6365V57.1532C81.0912 54.4241 79.1459 53.196 77.3426 53.196C76.8223 53.1792 76.3042 53.2709 75.8213 53.4651C75.3384 53.6593 74.9013 53.9519 74.5379 54.3242C74.1744 54.6965 73.8926 55.1403 73.7103 55.6274C73.528 56.1144 73.4493 56.6341 73.4792 57.1532V64.6365H71.8398V52.1971H73.4792V53.4034C73.9624 52.8493 74.5609 52.4073 75.233 52.1084C75.905 51.8096 76.6343 51.661 77.3699 51.6731C78.0867 51.6576 78.7991 51.789 79.4631 52.0592C80.1272 52.3294 80.7286 52.7327 81.2305 53.2442C81.7323 53.7557 82.1239 54.3646 82.3809 55.0331C82.638 55.7017 82.7551 56.4158 82.7251 57.1314V64.6147L81.0912 64.6365Z" fill="white"/>
<path d="M49.8406 50.0736C48.9487 50.0569 48.0679 49.8717 47.245 49.5277C45.7788 48.9061 44.5711 47.7999 43.8242 46.3947L44.2614 46.1218C44.4258 46.0198 44.6144 45.9633 44.8078 45.958C44.9757 45.9585 45.1414 45.9965 45.2926 46.0693C45.4439 46.142 45.577 46.2476 45.6821 46.3783C46.1524 47.0352 46.7728 47.5706 47.4917 47.9399C48.2107 48.3093 49.0075 48.5019 49.816 48.5019C50.6245 48.5019 51.4213 48.3093 52.1403 47.9399C52.8593 47.5706 53.4797 47.0352 53.9499 46.3783C54.0528 46.2465 54.1847 46.14 54.3354 46.0672C54.486 45.9943 54.6514 45.957 54.8188 45.958C55.0122 45.9633 55.2008 46.0198 55.3652 46.1218L55.8133 46.3892C55.0881 47.7912 53.9039 48.9027 52.4581 49.5386C51.6353 49.8831 50.7545 50.0684 49.8625 50.0845L49.8406 50.0736Z" fill="white"/>
<path d="M69.3612 52.1953H67.7383V64.6293H69.3612V52.1953Z" fill="white"/>
<path d="M92.4984 29.8619C90.0066 29.4252 81.0667 30.6478 70.094 39.1409C78.0066 25.4516 74.706 14.8898 73.6404 12.7993C73.6095 12.7375 73.5637 12.6844 73.5073 12.6444C73.4508 12.6045 73.3854 12.5791 73.3168 12.5705C73.2482 12.5619 73.1785 12.5703 73.1139 12.5949C73.0493 12.6196 72.9918 12.6598 72.9465 12.712C70.4164 15.6376 70.5967 22.9899 71.0721 26.9035C71.8973 33.8955 70.0721 37.7491 69.3618 38.9553C69.3618 38.8189 69.3618 37.6726 69.3618 35.9424V15.714C69.3642 15.072 69.185 14.4423 68.8446 13.8976C68.5043 13.3529 68.0168 12.9154 67.4383 12.6356L42.4164 0.354472C41.9102 0.104019 41.3497 -0.0171062 40.7851 0.00194543C40.2206 0.0209971 39.6695 0.179631 39.1814 0.463637L18.1213 12.6247C17.5982 12.925 17.1634 13.3575 16.8603 13.8786C16.5572 14.3997 16.3966 14.9913 16.3945 15.594V17.0404H18.0339V15.594C18.0349 15.2764 18.1192 14.9648 18.2784 14.6899C18.4375 14.4151 18.666 14.1867 18.941 14.0274L39.9902 1.86641C40.2481 1.71615 40.5393 1.63202 40.8378 1.62154C41.1362 1.61107 41.4326 1.67456 41.7005 1.80637L66.7169 14.0875C67.0242 14.2363 67.2828 14.4692 67.4627 14.7591C67.6427 15.0489 67.7365 15.3839 67.7333 15.7249V36.0897C65.8372 26.4341 60.8645 20.9813 59.0667 19.9551C59.0034 19.9201 58.9311 19.9049 58.859 19.9114C58.7701 19.9211 58.6873 19.9612 58.6246 20.0248C58.5618 20.0885 58.523 20.1718 58.5148 20.2608C58.1158 23.8359 61.6459 29.4579 64.0503 31.996C67.0066 35.1509 68.5475 38.9717 67.247 41.7773C64.9738 46.6897 57.3454 50.112 53.2634 50.4723C53.0175 50.4723 53.1104 50.7343 53.2634 50.7343C57.8636 50.6189 62.2647 48.836 65.6459 45.7181C66.9655 44.4103 68.1977 43.0173 69.3344 41.548C71.0175 39.523 74.5257 37.5526 79.0339 37.4161C83.9082 37.2633 90.6295 34.0702 92.8372 30.5605C92.8768 30.4944 92.8994 30.4196 92.9028 30.3426C92.9062 30.2656 92.8904 30.1891 92.8568 30.1197C92.8232 30.0504 92.7728 29.9905 92.7102 29.9455C92.6477 29.9005 92.5749 29.8717 92.4984 29.8619Z" fill="white"/>
</svg>
