<?xml version="1.0"?>
<svg xmlns="http://www.w3.org/2000/svg" xmlns:xlink="http://www.w3.org/1999/xlink" xmlns:svgjs="http://svgjs.com/svgjs" version="1.1" width="512" height="512" x="0" y="0" viewBox="0 0 511.98 511.98" style="enable-background:new 0 0 512 512" xml:space="preserve"><g><g xmlns="http://www.w3.org/2000/svg"><path d="m192.925 215.076v52.257h30v-52.005h5.108l63.364 20.076v17.929h30v-72.558h16.01v-30h-16.01v-72.483h-30v17.929l-63.364 20.076h-30.624c-21.874 0-39.67 17.796-39.67 39.67v19.69c0 20.36 15.415 37.185 35.186 39.419zm52.428-72.796 46.044-14.588v76.242l-46.044-14.588zm-57.614 13.688c0-5.332 4.338-9.67 9.67-9.67h17.944v39.03h-17.944c-5.332 0-9.67-4.338-9.67-9.67z" fill="#ffffff" data-original="#000000" style=""/><path d="m419.77 171.169v-171.169h-327.514v171.167l-92.183 46.585v294.228h511.834v-294.226zm-194.465 190.81-195.232 109.401v-218.801zm30.685 17.195 183.464 102.806h-366.927zm30.685-17.195 195.232-109.401v218.802zm178.333-134.32-45.238 25.35v-48.223zm-75.238-197.659v239.82l-133.78 74.965-133.734-74.94v-239.845zm-297.514 223.034-45.278-25.372 45.278-22.881z" fill="#ffffff" data-original="#000000" style=""/></g></g></svg>
