<svg width="32" height="32" viewBox="0 0 32 32" fill="none" xmlns="http://www.w3.org/2000/svg">
<path d="M20.5202 17.8959V26.0209C20.5202 27.2126 19.5452 28.1876 18.3535 28.1876H7.52018C6.32852 28.1876 5.35352 27.2126 5.35352 26.0209V8.14591C5.35352 6.95425 6.32852 5.97925 7.52018 5.97925H14.0202" stroke="#19232E" stroke-miterlimit="10" stroke-linecap="round" stroke-linejoin="round"/>
<path d="M5.35352 9.77094H14.0202" stroke="#19232E" stroke-miterlimit="10" stroke-linecap="round" stroke-linejoin="round"/>
<path d="M20.5202 22.7709H5.35352" stroke="#19232E" stroke-miterlimit="10" stroke-linecap="round" stroke-linejoin="round"/>
<path d="M27.1869 4.35425H16.0202C14.9156 4.35425 14.0202 5.24968 14.0202 6.35425V12.6459C14.0202 13.7505 14.9156 14.6459 16.0202 14.6459H27.1869C28.2914 14.6459 29.1869 13.7505 29.1869 12.6459V6.35425C29.1869 5.24968 28.2914 4.35425 27.1869 4.35425Z" stroke="#19232E" stroke-miterlimit="10" stroke-linecap="round" stroke-linejoin="round"/>
<path d="M20.5202 11.3959H17.2702" stroke="#19232E" stroke-miterlimit="10" stroke-linecap="round" stroke-linejoin="round"/>
<path d="M29.1869 7.60425H14.0202" stroke="#19232E" stroke-miterlimit="10" stroke-linecap="round" stroke-linejoin="round"/>
</svg>
