<?xml version="1.0"?>
<svg xmlns="http://www.w3.org/2000/svg" xmlns:xlink="http://www.w3.org/1999/xlink" xmlns:svgjs="http://svgjs.com/svgjs" version="1.1" width="512" height="512" x="0" y="0" viewBox="0 0 512 512" style="enable-background:new 0 0 512 512" xml:space="preserve" class=""><g>
<circle xmlns="http://www.w3.org/2000/svg" style="" cx="256" cy="256" r="256" fill="#c98511" data-original="#95a5a5" class=""/>
<path xmlns="http://www.w3.org/2000/svg" style="" d="M195.743,221.661c-5.217,5.252-5.853,13.515-1.501,19.509c10.24,14.08,21.575,27.33,33.898,39.636  c13.753,13.798,28.698,26.35,44.668,37.517c5.994,4.202,14.151,3.496,19.332-1.677l28.425-28.425c7.821-7.821,20.515-7.821,28.337,0  l49.611,49.611c7.821,7.821,7.821,20.515,0,28.337l-13.418,13.418c-19.553,19.756-48.004,27.86-75.034,21.363  c-25.079-6.647-48.922-17.293-70.621-31.514c-19.977-12.659-38.506-27.454-55.261-44.138c-15.404-15.325-29.246-32.15-41.313-50.229  c-13.277-19.562-23.79-40.863-31.25-63.294c-9.172-28.593-1.571-59.913,19.686-81.126l15.625-15.89  c7.821-7.821,20.515-7.821,28.337,0l49.611,49.611c7.821,7.821,7.821,20.515,0,28.337L195.743,221.661z" fill="#ffffff" data-original="#7ed09e" class=""/>
<g xmlns="http://www.w3.org/2000/svg">
</g>
<g xmlns="http://www.w3.org/2000/svg">
</g>
<g xmlns="http://www.w3.org/2000/svg">
</g>
<g xmlns="http://www.w3.org/2000/svg">
</g>
<g xmlns="http://www.w3.org/2000/svg">
</g>
<g xmlns="http://www.w3.org/2000/svg">
</g>
<g xmlns="http://www.w3.org/2000/svg">
</g>
<g xmlns="http://www.w3.org/2000/svg">
</g>
<g xmlns="http://www.w3.org/2000/svg">
</g>
<g xmlns="http://www.w3.org/2000/svg">
</g>
<g xmlns="http://www.w3.org/2000/svg">
</g>
<g xmlns="http://www.w3.org/2000/svg">
</g>
<g xmlns="http://www.w3.org/2000/svg">
</g>
<g xmlns="http://www.w3.org/2000/svg">
</g>
<g xmlns="http://www.w3.org/2000/svg">
</g>
</g></svg>
