<svg width="24" height="24" viewBox="0 0 24 24" fill="none" xmlns="http://www.w3.org/2000/svg">
<path d="M11.3 4.70005C11.3 3.60005 10.4 2.80005 9.4 2.80005C8.3 2.80005 7.5 3.70005 7.5 4.70005V15.2" stroke="#05626A" stroke-width="1.5" stroke-miterlimit="10" stroke-linecap="round" stroke-linejoin="round"/>
<path d="M18.9001 4.70005C18.9001 3.60005 18.0001 2.80005 17.0001 2.80005C15.9001 2.80005 15.1001 3.70005 15.1001 4.70005V15.2" stroke="#05626A" stroke-width="1.5" stroke-miterlimit="10" stroke-linecap="round" stroke-linejoin="round"/>
<path d="M7.5 8.5H15.1" stroke="#05626A" stroke-width="1.5" stroke-miterlimit="10" stroke-linecap="round" stroke-linejoin="round"/>
<path d="M7.5 12.3H15.1" stroke="#05626A" stroke-width="1.5" stroke-miterlimit="10" stroke-linecap="round" stroke-linejoin="round"/>
<path d="M1.7998 16.8C4.2998 16.8 4.2998 18 6.7998 18C9.2998 18 9.2998 16.8 11.7998 16.8C14.2998 16.8 14.2998 18 16.7998 18C19.2998 18 19.2998 16.8 21.7998 16.8" stroke="#05626A" stroke-width="1.5" stroke-miterlimit="10" stroke-linecap="round" stroke-linejoin="round"/>
<path d="M6.5 20.8001C6.6 20.8001 6.7 20.8001 6.7 20.8001C9.2 20.8001 9.2 19.6001 11.7 19.6001C14.2 19.6001 14.2 20.8001 16.7 20.8001C16.8 20.8001 16.9 20.8001 16.9 20.8001" stroke="#05626A" stroke-width="1.5" stroke-miterlimit="10" stroke-linecap="round" stroke-linejoin="round"/>
</svg>
