<svg id="Capa_1" enable-background="new 0 0 513.2 513.2" height="512" viewBox="0 0 513.2 513.2" width="512" xmlns="http://www.w3.org/2000/svg"><g><path d="m5.06 189.852 58.482 27.451c1.03.483 2.114.713 3.182.713 2.817 0 5.518-1.596 6.794-4.315 1.76-3.749.147-8.216-3.603-9.976l-58.482-27.451c-3.749-1.759-8.215-.147-9.976 3.603-1.759 3.748-.147 8.215 3.603 9.975z"/><path d="m92.533 230.91 48.746 22.881c1.369.644 2.902.855 4.396.613l49.723-8.121c28.412-4.646 57.457 4.815 77.69 25.298l41.614 42.126c2.55 2.58 3.827 5.996 3.598 9.617s-1.929 6.848-4.785 9.087c-4.336 3.401-10.505 3.551-15.004.363l-40.572-28.744c-5.758-4.079-13.429-3.617-18.654 1.125l-38.373 34.819c-3.067 2.784-3.298 7.527-.514 10.595 1.479 1.631 3.514 2.46 5.556 2.46 1.798 0 3.602-.643 5.038-1.946l38.274-34.813 40.573 28.745c9.872 6.992 23.411 6.664 32.931-.799 6.177-4.842 10.004-12.11 10.5-19.942.497-7.832-2.382-15.526-7.896-21.108l-32.986-33.392c17.445-4.329 35.912-3.626 53.049 2.197l17.58 5.974c1.919.652 3.912.975 5.9.975 3.119 0 6.225-.794 8.997-2.351.035-.02.069-.04.104-.061l35.52-20.715c3.578-2.087 4.787-6.679 2.7-10.257s-6.679-4.788-10.257-2.7l-35.452 20.676c-.823.447-1.799.532-2.686.23l-17.581-5.975c-22.675-7.703-47.36-7.702-69.996-.085-23.423-21.591-55.685-31.36-87.287-26.204l-47.43 7.747-46.644-21.894c-3.749-1.759-8.215-.147-9.976 3.603-1.758 3.75-.146 8.217 3.604 9.976z"/><path d="m437.378 240.714c1.283 0 2.583-.329 3.771-1.022l66.501-38.782c3.578-2.087 4.787-6.679 2.7-10.257s-6.679-4.788-10.257-2.7l-66.501 38.782c-3.578 2.087-4.787 6.679-2.7 10.257 1.394 2.389 3.906 3.722 6.486 3.722z"/><path d="m511.692 330.425c-1.818-3.722-6.308-5.266-10.031-3.447l-65.986 32.233c-1.128.551-2.1 1.376-2.825 2.4l-5.309 7.484c-6.384 9.001-14.653 16.455-24.185 21.891-.746-1.203-1.589-2.358-2.536-3.448l-13.107-15.082c-4.624-5.322-11.044-8.525-18.078-9.019-7.023-.484-13.836 1.782-19.158 6.407l-1.08.938c-5.322 4.624-8.524 11.045-9.018 18.078-.008.12-.006.238-.013.357-6.848-.57-13.908 1.499-19.492 6.35l-1.083.941c-5.322 4.624-8.524 11.045-9.018 18.078-.008.113-.009.225-.016.338-.112-.009-.221-.027-.333-.035-7.03-.486-13.838 1.783-19.158 6.407l-1.08.938c-5.586 4.854-8.615 11.558-9.006 18.42-.121-.01-.24-.03-.361-.039-7.027-.495-13.837 1.782-19.158 6.407l-1.08.938c-10.986 9.546-12.158 26.251-2.611 37.237l6.334 7.289-2.528 2.236c-.047.041-.093.083-.139.126-4.884 4.542-12.975 4.428-17.736-.229-4.084-4.489-4.212-11.326-.278-15.961 2.569-3.028 2.333-7.535-.54-10.277-2.874-2.744-7.389-2.77-10.292-.062l-.799.744c-4.886 4.543-12.976 4.428-17.738-.228-4.141-4.551-4.229-11.441-.187-16.083 2.621-3.009 2.427-7.542-.44-10.316s-7.407-2.816-10.325-.099l-.224.208c-4.886 4.543-12.976 4.428-17.738-.228-4.093-4.499-4.214-11.344-.265-15.979 2.317-2.719 2.396-6.695.186-9.503-2.209-2.807-6.092-3.665-9.28-2.053-4.936 2.497-10.933 1.333-14.58-2.834-4.244-4.851-3.705-12.516 1.189-17.125l8.065-7.144 16.527-14.997c3.067-2.784 3.298-7.527.515-10.595-2.784-3.067-7.526-3.298-10.595-.514l-16.46 14.937-8.074 7.151c-.046.04-.091.081-.135.122-4.137 3.848-6.84 8.718-8.074 13.875l-.056-.032c-13.749-7.793-25.744-17.991-35.65-30.311l-4.276-5.318c-.689-.857-1.56-1.553-2.549-2.037l-90.285-44.167c-3.719-1.818-8.212-.279-10.033 3.441-1.82 3.721-.279 8.213 3.441 10.033l88.783 43.433 3.229 4.016c11.1 13.803 24.538 25.229 39.943 33.959l9.344 5.296c1.003 2.079 2.284 4.051 3.861 5.853 4.56 5.211 10.761 8.324 17.274 9.082-.93 7.688 1.44 15.682 7.062 21.726.062.065.125.131.188.195 5.798 5.798 13.692 8.482 21.444 8.01.037 6.579 2.473 13.142 7.281 18.312.062.066.125.132.188.196 5.993 5.992 14.241 8.665 22.217 7.951.193 6.363 2.617 12.663 7.243 17.637.062.065.124.131.188.194 5.365 5.366 12.532 8.065 19.706 8.064 6.796 0 13.599-2.423 18.876-7.295l2.676-2.368c4.165 3.366 9.246 5.383 14.7 5.766.631.044 1.259.066 1.885.066 6.355-.001 12.43-2.264 17.273-6.474l1.08-.938c5.322-4.624 8.524-11.045 9.018-18.078.008-.112.007-.224.013-.336.112.009.223.026.335.034.63.044 1.259.066 1.885.066 6.356 0 12.43-2.264 17.271-6.471l1.086-.933c5.322-4.624 8.524-11.045 9.018-18.078.008-.112.004-.224.01-.336.113.009.225.025.339.033.63.044 1.259.066 1.885.066 6.356 0 12.43-2.264 17.273-6.474l1.08-.938c5.588-4.856 8.621-11.564 9.01-18.43.738.062 1.478.102 2.219.102 6.141 0 12.31-2.126 17.299-6.461l1.077-.938c5.322-4.624 8.524-11.045 9.018-18.078.018-.259.025-.518.035-.776 12.916-6.626 24.084-16.265 32.512-28.148l4.202-5.924 64.268-31.394c3.722-1.818 5.265-6.309 3.447-10.031zm-212.136 160.209-1.08.938c-4.745 4.12-11.955 3.616-16.076-1.126 0-.001 0-.001 0-.001l-13.108-15.083c-4.121-4.743-3.615-11.955 1.127-16.076l1.081-.938c2.092-1.818 4.713-2.795 7.457-2.795.271 0 .542.01.813.028 3.036.213 5.809 1.596 7.805 3.893l13.107 15.084c4.122 4.743 3.617 11.955-1.126 16.076zm33.498-33.53c-.212 3.036-1.595 5.808-3.89 7.801l-1.084.941c-2.298 1.998-5.237 2.979-8.271 2.767-3.036-.213-5.809-1.596-7.805-3.893l-13.107-15.084c-1.996-2.298-2.979-5.235-2.766-8.271s1.596-5.809 3.893-7.805l1.08-.938c2.092-1.817 4.714-2.795 7.458-2.795.271 0 .542.01.814.029 3.036.212 5.808 1.595 7.804 3.892l13.107 15.084c1.997 2.297 2.979 5.235 2.767 8.272zm25.712-17.923-1.081.938c-2.298 1.998-5.241 2.977-8.271 2.767-3.036-.213-5.809-1.596-7.805-3.893l-13.107-15.084c-4.121-4.743-3.616-11.955 1.124-16.073l1.083-.941c2.154-1.871 4.816-2.789 7.468-2.789 3.188 0 6.358 1.327 8.608 3.915l13.107 15.084c4.122 4.743 3.617 11.955-1.126 16.076zm33.498-33.531c-.213 3.036-1.596 5.809-3.896 7.807l-1.077.938c-4.745 4.121-11.956 3.614-16.076-1.127l-13.107-15.085c-1.997-2.297-2.979-5.234-2.767-8.271s1.596-5.809 3.893-7.805l1.08-.938c2.092-1.817 4.714-2.795 7.458-2.795.271 0 .542.01.813.029 3.036.213 5.808 1.595 7.805 3.894l13.107 15.083c1.998 2.296 2.98 5.234 2.767 8.27z"/><path d="m244.64 201.711c3.341 3.34 7.782 5.18 12.506 5.18s9.165-1.84 12.506-5.18l83.699-83.699c26.962-26.963 26.962-70.835 0-97.798-26.365-26.363-69.217-26.966-96.323-1.652-27.053-25.261-69.762-24.671-96.086 1.653-13.062 13.062-20.255 30.427-20.255 48.898s7.193 35.837 20.254 48.898zm-85.96-150.407h196.932c1.801 5.186 2.802 10.667 2.956 16.294h-202.844c.154-5.627 1.155-11.107 2.956-16.294zm198.236 31.294c-1.479 5.795-3.912 11.29-7.221 16.294h-185.098c-3.309-5.004-5.742-10.499-7.221-16.294zm-36.953 47.588h-125.633l-16.294-16.294h158.221zm-31.293 31.293h-63.047l-16.293-16.293h95.633zm-29.625 29.625c-.684.685-1.483.787-1.898.787s-1.215-.103-1.898-.787l-14.625-14.625h33.047zm-49.202-176.086c13.752 0 27.512 5.176 38.018 15.534l2.401 2.368c3.717 3.664 9.773 3.675 13.5.019l2.539-2.49c21.177-20.77 55.469-20.603 76.444.374 1.732 1.732 3.321 3.568 4.784 5.481h-180.766c1.464-1.914 3.053-3.75 4.786-5.482 10.532-10.534 24.409-15.804 38.294-15.804z"/></g></svg>