<svg width="16" height="16" viewBox="0 0 16 16" fill="none" xmlns="http://www.w3.org/2000/svg">
<path d="M4.56366 8.93335C3.77511 9.31582 3.11019 9.91261 2.64504 10.6554C2.17989 11.3982 1.93331 12.2569 1.93353 13.1333C1.93353 13.1333 3.8002 15 8.0002 15C12.2002 15 14.0669 13.1333 14.0669 13.1333C14.067 12.2568 13.8203 11.398 13.355 10.6552C12.8896 9.91242 12.2245 9.31568 11.4358 8.93335" stroke="#05626A" stroke-width="1.4" stroke-linecap="round" stroke-linejoin="round"/>
<path d="M11.2669 4.26667C11.2669 6.0708 9.80433 8.46667 8.00019 8.46667C6.19606 8.46667 4.73353 6.0708 4.73353 4.26667C4.73353 3.40029 5.07769 2.5694 5.69031 1.95678C6.30293 1.34417 7.13382 1 8.00019 1C8.86657 1 9.69746 1.34417 10.3101 1.95678C10.9227 2.5694 11.2669 3.40029 11.2669 4.26667V4.26667Z" stroke="#05626A" stroke-width="1.4" stroke-linecap="round" stroke-linejoin="round"/>
</svg>
