<svg width="40" height="40" viewBox="0 0 40 40" fill="none" xmlns="http://www.w3.org/2000/svg">
<path d="M24.5005 4.66667V3" stroke="white" stroke-width="2" stroke-miterlimit="10" stroke-linecap="round" stroke-linejoin="round"/>
<path d="M24.5005 18.1667V16.5" stroke="white" stroke-width="2" stroke-miterlimit="10" stroke-linecap="round" stroke-linejoin="round"/>
<path d="M18.667 13.4998C18.667 15.1664 21.3337 16.4998 24.667 16.4998C28.0003 16.4998 30.667 15.1664 30.667 13.4998C30.667 11.8331 28.0003 10.4998 24.667 10.4998C21.3337 10.4998 18.667 9.16642 18.667 7.49976C18.667 5.83309 21.3337 4.49976 24.667 4.49976C28.0003 4.49976 30.667 5.83309 30.667 7.49976" stroke="white" stroke-width="2" stroke-miterlimit="10" stroke-linecap="round" stroke-linejoin="round"/>
<path d="M19.3332 29C17.8332 29 16.6665 27.8333 16.6665 26.3333C16.6665 24.8333 17.8332 23.6666 19.3332 23.6666H30.9998C33.9998 23.6666 36.3332 26 36.3332 29" stroke="white" stroke-width="2" stroke-miterlimit="10" stroke-linecap="round" stroke-linejoin="round"/>
<path d="M35.8331 36.1666H20.4998C16.9998 36.1666 13.4998 34.8333 10.8331 32.4999L3.99978 26.3333C2.49978 24.9999 2.49978 22.6666 3.83311 21.3333C5.16645 19.8333 7.49978 19.8333 8.99978 21.1666L17.4998 28.8333C17.8331 29.1666 18.1664 29.1666 18.4998 29.1666H25.8331" stroke="white" stroke-width="2" stroke-miterlimit="10" stroke-linecap="round" stroke-linejoin="round"/>
</svg>
