<svg width="16" height="16" viewBox="0 0 16 16" fill="none" xmlns="http://www.w3.org/2000/svg">
<mask id="path-1-inside-1" fill="white">
<path d="M15.1332 14.2001L12.4665 11.5334C13.3998 10.4001 13.9998 8.93341 13.9998 7.33341C13.9998 3.66675 10.9998 0.666748 7.33317 0.666748C3.6665 0.666748 0.666504 3.66675 0.666504 7.33341C0.666504 11.0001 3.6665 14.0001 7.33317 14.0001C8.93317 14.0001 10.3998 13.4667 11.5332 12.4667L14.1998 15.1334C14.3332 15.2667 14.5332 15.3334 14.6665 15.3334C14.7998 15.3334 14.9998 15.2667 15.1332 15.1334C15.3998 14.8667 15.3998 14.4667 15.1332 14.2001ZM1.99984 7.33341C1.99984 4.40008 4.39984 2.00008 7.33317 2.00008C10.2665 2.00008 12.6665 4.40008 12.6665 7.33341C12.6665 10.2667 10.2665 12.6667 7.33317 12.6667C4.39984 12.6667 1.99984 10.2667 1.99984 7.33341Z"/>
</mask>
<path d="M15.1332 14.2001L12.4665 11.5334C13.3998 10.4001 13.9998 8.93341 13.9998 7.33341C13.9998 3.66675 10.9998 0.666748 7.33317 0.666748C3.6665 0.666748 0.666504 3.66675 0.666504 7.33341C0.666504 11.0001 3.6665 14.0001 7.33317 14.0001C8.93317 14.0001 10.3998 13.4667 11.5332 12.4667L14.1998 15.1334C14.3332 15.2667 14.5332 15.3334 14.6665 15.3334C14.7998 15.3334 14.9998 15.2667 15.1332 15.1334C15.3998 14.8667 15.3998 14.4667 15.1332 14.2001ZM1.99984 7.33341C1.99984 4.40008 4.39984 2.00008 7.33317 2.00008C10.2665 2.00008 12.6665 4.40008 12.6665 7.33341C12.6665 10.2667 10.2665 12.6667 7.33317 12.6667C4.39984 12.6667 1.99984 10.2667 1.99984 7.33341Z" fill="#1F1F1F"/>
<path d="M12.4665 11.5334L11.3086 10.5799L10.4429 11.6311L11.4058 12.5941L12.4665 11.5334ZM11.5332 12.4667L12.5938 11.4061L11.5974 10.4096L10.5407 11.342L11.5332 12.4667ZM16.1938 13.1394L13.5272 10.4728L11.4058 12.5941L14.0725 15.2607L16.1938 13.1394ZM13.6244 12.487C14.7574 11.1112 15.4998 9.31374 15.4998 7.33341H12.4998C12.4998 8.55309 12.0423 9.68894 11.3086 10.5799L13.6244 12.487ZM15.4998 7.33341C15.4998 2.83832 11.8283 -0.833252 7.33317 -0.833252V2.16675C10.1714 2.16675 12.4998 4.49517 12.4998 7.33341H15.4998ZM7.33317 -0.833252C2.83808 -0.833252 -0.833496 2.83832 -0.833496 7.33341H2.1665C2.1665 4.49517 4.49493 2.16675 7.33317 2.16675V-0.833252ZM-0.833496 7.33341C-0.833496 11.8285 2.83808 15.5001 7.33317 15.5001V12.5001C4.49493 12.5001 2.1665 10.1717 2.1665 7.33341H-0.833496ZM7.33317 15.5001C9.27308 15.5001 11.0996 14.8497 12.5256 13.5915L10.5407 11.342C9.70004 12.0838 8.59326 12.5001 7.33317 12.5001V15.5001ZM10.4725 13.5274L13.1392 16.1941L15.2605 14.0728L12.5938 11.4061L10.4725 13.5274ZM13.1392 16.1941C13.5722 16.6271 14.1621 16.8334 14.6665 16.8334V13.8334C14.8242 13.8334 14.9305 13.8668 14.9903 13.8907C15.0565 13.9172 15.1565 13.9688 15.2605 14.0728L13.1392 16.1941ZM14.6665 16.8334C15.1709 16.8334 15.7608 16.6271 16.1938 16.1941L14.0725 14.0728C14.1765 13.9688 14.2765 13.9172 14.3428 13.8907C14.4025 13.8668 14.5088 13.8334 14.6665 13.8334V16.8334ZM16.1938 16.1941C17.0463 15.3416 17.0463 13.9919 16.1938 13.1394L14.0725 15.2607C13.9335 15.1217 13.8332 14.9104 13.8332 14.6667C13.8332 14.4231 13.9335 14.2117 14.0725 14.0728L16.1938 16.1941ZM3.49984 7.33341C3.49984 5.22851 5.22826 3.50008 7.33317 3.50008V0.500081C3.57141 0.500081 0.499837 3.57165 0.499837 7.33341H3.49984ZM7.33317 3.50008C9.43808 3.50008 11.1665 5.22851 11.1665 7.33341H14.1665C14.1665 3.57165 11.0949 0.500081 7.33317 0.500081V3.50008ZM11.1665 7.33341C11.1665 9.43832 9.43808 11.1667 7.33317 11.1667V14.1667C11.0949 14.1667 14.1665 11.0952 14.1665 7.33341H11.1665ZM7.33317 11.1667C5.22826 11.1667 3.49984 9.43832 3.49984 7.33341H0.499837C0.499837 11.0952 3.57141 14.1667 7.33317 14.1667V11.1667Z" fill="white" mask="url(#path-1-inside-1)"/>
</svg>
