<svg width="34" height="34" viewBox="0 0 34 34" fill="none" xmlns="http://www.w3.org/2000/svg">
<circle cx="17" cy="17" r="16" stroke="white" stroke-opacity="0.2"/>
<path fill-rule="evenodd" clip-rule="evenodd" d="M14.5984 11.3407C14.5984 10.4902 13.8818 9.7998 12.9992 9.7998C12.113 9.7998 11.3984 10.4902 11.3984 11.3407C11.3984 12.1915 12.113 12.8818 12.9992 12.8818C13.8818 12.8818 14.5984 12.1915 14.5984 11.3407ZM14.3795 14.0499H11.6175V22.5998H14.3795V14.0499Z" fill="white"/>
<path d="M16.1982 14.7935H18.6577V15.8607H18.6928C19.0349 15.247 19.8721 14.5998 21.1203 14.5998C23.7182 14.5998 24.1982 16.2162 24.1982 18.3186V22.5998H21.6328V18.8036C21.6328 17.8984 21.6163 16.7338 20.2996 16.7338C18.9646 16.7338 18.7609 17.7204 18.7609 18.7388V22.5998H16.1982V14.7935H16.1982Z" fill="white"/>
</svg>
