<svg width="24" height="24" viewBox="0 0 24 24" fill="none" xmlns="http://www.w3.org/2000/svg">
<path d="M21.8004 16.8001L19.4004 16.0001C19.1004 15.9001 18.8004 16.1001 18.7004 16.4001L17.9004 21.4001C17.9004 21.6001 18.0004 21.9001 18.2004 22.0001L20.8004 22.9001" stroke="#05626A" stroke-width="1.5" stroke-miterlimit="10" stroke-linecap="round" stroke-linejoin="round"/>
<path d="M18.6003 16.8001C18.6003 16.8001 17.6003 16.1001 15.7003 15.8001C14.3003 15.6001 10.9003 16.2001 8.80029 18.8001C9.40029 20.1001 11.9003 18.0001 13.7003 17.8001" stroke="#05626A" stroke-width="1.5" stroke-miterlimit="10" stroke-linecap="round" stroke-linejoin="round"/>
<path d="M17.9002 20.8001H9.3002C8.9002 20.8001 8.5002 20.7001 8.2002 20.5001L2.7002 17.0001C2.7002 17.0001 3.3002 15.7001 4.7002 15.9001C6.1002 16.1001 9.7002 17.9001 9.7002 17.9001" stroke="#05626A" stroke-width="1.5" stroke-miterlimit="10" stroke-linecap="round" stroke-linejoin="round"/>
<path d="M12.2002 3.80005C12.7525 3.80005 13.2002 3.35233 13.2002 2.80005C13.2002 2.24776 12.7525 1.80005 12.2002 1.80005C11.6479 1.80005 11.2002 2.24776 11.2002 2.80005C11.2002 3.35233 11.6479 3.80005 12.2002 3.80005Z" stroke="#05626A" stroke-width="1.5" stroke-miterlimit="10" stroke-linecap="round" stroke-linejoin="round"/>
<path d="M20.7998 11.8H3.7998C3.1998 11.8 2.7998 12.2 2.7998 12.8C2.7998 13.4 3.1998 13.8 3.7998 13.8H20.7998C21.3998 13.8 21.7998 13.4 21.7998 12.8C21.7998 12.2 21.2998 11.8 20.7998 11.8Z" stroke="#05626A" stroke-width="1.5" stroke-miterlimit="10" stroke-linecap="round" stroke-linejoin="round"/>
<path d="M3.7998 11.7C4.0998 7.19995 7.7998 3.69995 12.2998 3.69995C16.7998 3.69995 20.4998 7.19995 20.7998 11.7" stroke="#05626A" stroke-width="1.5" stroke-miterlimit="10" stroke-linecap="round" stroke-linejoin="round"/>
</svg>
