<svg width="14" height="13" viewBox="0 0 14 13" fill="none" xmlns="http://www.w3.org/2000/svg">
<path d="M12 4.93333H11.8667H2.33334V1C2.33334 0.466667 1.86667 0 1.33334 0C0.800003 0 0.333336 0.466667 0.333336 1V11.1333C0.333336 11.6667 0.800003 12.1333 1.33334 12.1333C1.86667 12.1333 2.33334 11.6667 2.33334 11.1333V9.26667H11.8667V11.1333C11.8667 11.6667 12.3333 12.1333 12.8667 12.1333C13.4 12.1333 13.8667 11.6667 13.8667 11.1333V6.73333C13.8667 5.73333 13.0667 4.93333 12 4.93333Z" fill="white"/>
<path d="M4.06641 4.26656H6.19974C6.59974 4.26656 6.86641 3.93323 6.86641 3.59989C6.86641 3.19989 6.53308 2.93323 6.19974 2.93323H4.06641C3.66641 2.93323 3.39974 3.26656 3.39974 3.59989C3.39974 3.93323 3.66641 4.26656 4.06641 4.26656Z" fill="white"/>
</svg>
