<svg width="15" height="14" viewBox="0 0 15 14" fill="none" xmlns="http://www.w3.org/2000/svg">
<path d="M13.6667 6.86671V3.00004C13.6667 1.53337 12.4667 0.333374 11 0.333374C9.53333 0.333374 8.33333 1.53337 8.33333 3.00004V3.60004C8.33333 4.00004 8.6 4.26671 9 4.26671C9.4 4.26671 9.66667 4.00004 9.66667 3.60004V3.00004C9.66667 2.26671 10.2667 1.66671 11 1.66671C11.7333 1.66671 12.3333 2.26671 12.3333 3.00004V6.86671H0.666668V9.60004C0.666668 10.9334 1.6 12 2.86667 12.2V12.8667C2.86667 13.2667 3.2 13.5334 3.53333 13.5334C3.86667 13.5334 4.2 13.2 4.2 12.8667V12.2H11.4667V12.8667C11.4667 13.2667 11.8 13.5334 12.1333 13.5334C12.4667 13.5334 12.8 13.2 12.8 12.8667V12.2C14.0667 12 15 10.8667 15 9.60004V6.86671H13.6667Z" fill="white"/>
</svg>
