<?xml version="1.0"?>
<svg xmlns="http://www.w3.org/2000/svg" xmlns:xlink="http://www.w3.org/1999/xlink" xmlns:svgjs="http://svgjs.com/svgjs" version="1.1" width="512" height="512" x="0" y="0" viewBox="0 0 512 512" style="enable-background:new 0 0 512 512" xml:space="preserve" class=""><g><path xmlns="http://www.w3.org/2000/svg" d="m59.332031 467h321.335938v-85.332031h131.332031v-321.714844h-452.667969zm30-377.046875h392.667969v261.714844h-131.332031v85.332031h-261.335938zm0 0" fill="#008080" data-original="#000000" style="" class=""/><path xmlns="http://www.w3.org/2000/svg" d="m59.332031 0h452.667969v30h-452.667969zm0 0" fill="#008080" data-original="#000000" style="" class=""/><path xmlns="http://www.w3.org/2000/svg" d="m0 59.953125h30v407.046875h-30zm0 0" fill="#008080" data-original="#000000" style="" class=""/><path xmlns="http://www.w3.org/2000/svg" d="m264.054688 191.496094-28.863282 48.492187-29.640625-48.492187h-25.222656v91.003906h27.953125v-40.042969l19.761719 31.851563h13.519531l19.761719-33.28125.257812 41.472656h27.953125l-.261718-91.003906zm0 0" fill="#008080" data-original="#000000" style="" class=""/><path xmlns="http://www.w3.org/2000/svg" d="m336.980469 219.058594c8.449219-7.410156 10.398437-11.960938 10.398437-17.160156 0-10.53125-9.617187-17.160157-23.917968-17.160157-13.390626 0-21.84375 5.457031-25.613282 12.867188l15.082032 7.152343c1.6875-3.121093 4.679687-4.941406 8.710937-4.941406 3.640625 0 5.199219 1.5625 5.199219 3.640625 0 1.691407-.78125 3.769531-4.679688 7.019531l-20.671875 17.683594v11.828125h47.582031v-14.816406h-19.242187zm0 0" fill="#008080" data-original="#000000" style="" class=""/></g></svg>
