<?xml version="1.0"?>
<svg xmlns="http://www.w3.org/2000/svg" xmlns:xlink="http://www.w3.org/1999/xlink" xmlns:svgjs="http://svgjs.com/svgjs" version="1.1" width="512" height="512" x="0" y="0" viewBox="0 0 511 511.9995" style="enable-background:new 0 0 512 512" xml:space="preserve" class=""><g><path xmlns="http://www.w3.org/2000/svg" d="m489.902344 230.558594c-.652344 0-1.3125-.066406-1.953125-.199219-.640625-.128906-1.269531-.320313-1.867188-.570313-.609375-.25-1.191406-.558593-1.730469-.917968-.550781-.359375-1.0625-.78125-1.519531-1.242188-.460937-.457031-.882812-.976562-1.242187-1.519531-.359375-.550781-.667969-1.128906-.917969-1.730469-.25-.597656-.449219-1.226562-.570313-1.867187-.128906-.652344-.199218-1.300781-.199218-1.953125 0-.65625.070312-1.308594.199218-1.957032.121094-.640624.320313-1.261718.570313-1.871093.25-.601563.558594-1.179688.917969-1.71875.359375-.550781.78125-1.0625 1.242187-1.53125.457031-.460938.96875-.878907 1.519531-1.238281.539063-.359376 1.121094-.671876 1.730469-.921876.597657-.25 1.230469-.4375 1.867188-.570312 1.292969-.257812 2.609375-.257812 3.902343 0 .640626.132812 1.269532.320312 1.878907.570312.601562.25 1.179687.5625 1.71875.921876.550781.359374 1.0625.777343 1.523437 1.238281.457032.472656.878906.980469 1.25 1.53125.359375.539062.667969 1.117187.917969 1.71875.25.609375.441406 1.230469.570313 1.871093.128906.648438.191406 1.300782.191406 1.957032 0 .652344-.0625 1.300781-.191406 1.953125-.128907.640625-.320313 1.269531-.570313 1.867187-.25.601563-.558594 1.179688-.917969 1.730469-.371094.542969-.792968 1.0625-1.25 1.519531-.460937.460938-.972656.882813-1.523437 1.242188-.539063.359375-1.117188.667968-1.71875.917968-.609375.25-1.238281.441407-1.878907.570313-.640624.132813-1.300781.199219-1.949218.199219zm0 0" fill="#008080" data-original="#000000" style="" class=""/><path xmlns="http://www.w3.org/2000/svg" d="m344.171875 245.648438h-78.167969c-5.519531 0-10-4.476563-10-10v-50.738282c0-26.4375 21.511719-47.945312 47.945313-47.945312h2.277343c26.4375 0 47.945313 21.507812 47.945313 47.945312v50.738282c0 5.523437-4.476563 10-10 10zm-68.167969-20h58.167969v-40.738282c0-15.40625-12.535156-27.945312-27.941406-27.945312h-2.28125c-15.40625 0-27.941407 12.539062-27.941407 27.945312v40.738282zm0 0" fill="#008080" data-original="#000000" style="" class=""/><path xmlns="http://www.w3.org/2000/svg" d="m489.902344 254.796875c-5.523438 0-10 4.476563-10 10v150.433594h-382.539063v-402.34375c0-5.523438-4.480469-10-10-10h-76.863281c-5.523438 0-10 4.476562-10 10v489.113281c0 5.523438 4.476562 10 10 10h479.402344c5.519531 0 10-4.476562 10-10v-237.203125c0-5.523437-4.476563-10-10-10zm-469.402344-231.910156h56.863281v65.347656h-12.917969c-5.523437 0-10 4.476563-10 10s4.476563 10 10 10h12.917969v67.320313h-12.917969c-5.523437 0-10 4.480468-10 10 0 5.523437 4.476563 10 10 10h12.917969v67.320312h-12.917969c-5.523437 0-10 4.476562-10 10s4.476563 10 10 10h12.917969v67.320312h-12.917969c-5.523437 0-10 4.476563-10 10 0 5.523438 4.476563 10 10 10h12.917969v67.320313h-12.917969c-5.523437 0-10 4.480469-10 10 0 5.523437 4.476563 10 10 10h12.917969v34.484375h-56.863281zm459.402344 469.113281h-382.539063v-56.769531h45.109375v12.890625c0 5.519531 4.476563 10 10 10 5.523438 0 10-4.480469 10-10v-12.890625h67.425782v12.890625c0 5.519531 4.476562 10 10 10 5.523437 0 10-4.480469 10-10v-12.890625h67.425781v12.890625c0 5.519531 4.480469 10 10 10 5.523437 0 10-4.480469 10-10v-12.890625h67.425781v12.890625c0 5.519531 4.480469 10 10 10 5.523438 0 10-4.480469 10-10v-12.890625h55.152344zm0 0" fill="#008080" data-original="#000000" style="" class=""/><path xmlns="http://www.w3.org/2000/svg" d="m151.472656 206.578125c3.679688 3.757813 9.636719 4.023437 13.636719.617187l7.210937-6.144531v179.148438c0 5.519531 4.480469 10 10 10h245.539063c5.519531 0 10-4.480469 10-10v-179.148438l7.210937 6.144531c1.875 1.601563 4.183594 2.390626 6.484376 2.390626 2.601562 0 5.199218-1.015626 7.148437-3.007813l31.808594-32.519531c1.917969-1.960938 2.945312-4.625 2.84375-7.363282-.101563-2.738281-1.324219-5.320312-3.382813-7.132812l-178.273437-157.066406c-3.777344-3.328125-9.441407-3.328125-13.21875 0l-178.273438 157.066406c-2.058593 1.8125-3.28125 4.394531-3.382812 7.132812-.101563 2.738282.925781 5.402344 2.84375 7.363282zm124.53125 163.621094v-68.683594h58.167969v68.683594zm141.855469 0h-63.6875v-78.683594c0-5.523437-4.476563-10-10-10h-78.167969c-5.519531 0-10 4.476563-10 10v78.683594h-63.683594v-186.195313l112.769532-96.101562 112.769531 96.101562zm-112.769531-346.871094 163.757812 144.277344-17.910156 18.3125-139.363281-118.765625c-3.738281-3.1875-9.234375-3.1875-12.972657 0l-139.359374 118.765625-17.910157-18.3125zm0 0" fill="#008080" data-original="#000000" style="" class=""/></g></svg>
