<svg width="105" height="105" viewBox="0 0 105 105" fill="none" xmlns="http://www.w3.org/2000/svg">
<rect x="0.150879" y="0.757965" width="104.278" height="104.241" fill="white"/>
<g clip-path="url(#clip0)">
<path d="M74.5913 71.0003C73.9762 71.0011 73.3717 70.8467 72.8384 70.5526C72.3052 70.2585 71.8619 69.835 71.5531 69.3246L71.4791 69.2018L72.2074 68.7979L72.27 68.9262C72.4958 69.3289 72.8306 69.6659 73.239 69.9017C73.6475 70.1375 74.1146 70.2634 74.5913 70.2662C75.3089 70.2561 75.993 69.9735 76.4937 69.4804C76.9945 68.9872 77.2709 68.3237 77.2626 67.6353V66.2898C76.9551 66.6916 76.5526 67.0176 76.0883 67.2411C75.6239 67.4645 75.1108 67.5791 74.5913 67.5753C74.1221 67.5881 73.655 67.5105 73.2176 67.3471C72.7802 67.1837 72.3813 66.9378 72.0447 66.6239C71.7081 66.31 71.4405 65.9346 71.2578 65.5198C71.0751 65.105 70.981 64.6592 70.981 64.2089C70.981 63.7585 71.0751 63.3128 71.2578 62.898C71.4405 62.4832 71.7081 62.1077 72.0447 61.7939C72.3813 61.48 72.7802 61.2341 73.2176 61.0707C73.655 60.9073 74.1221 60.8297 74.5913 60.8425C75.1114 60.8374 75.6251 60.9517 76.0898 61.1758C76.5544 61.3999 76.9566 61.7272 77.2626 62.1306V61.099H78.116V67.6489C78.1115 68.5417 77.7377 69.3961 77.0768 70.0246C76.4158 70.653 75.5219 71.0039 74.5913 71.0003ZM74.5913 61.5794C74.046 61.5658 73.5089 61.7085 73.0486 61.9894C72.5883 62.2702 72.2257 62.6764 72.0073 63.1559C71.7889 63.6354 71.7245 64.1666 71.8224 64.6814C71.9202 65.1962 72.1759 65.6714 72.5568 66.0461C72.9376 66.4207 73.4262 66.6779 73.9602 66.7848C74.4943 66.8917 75.0493 66.8433 75.5546 66.6459C76.0598 66.4485 76.4921 66.1111 76.7964 65.6767C77.1006 65.2424 77.263 64.7308 77.2626 64.2075C77.2702 63.5196 76.9934 62.8568 76.4927 62.3642C75.9921 61.8716 75.3084 61.5894 74.5913 61.5794Z" fill="#C78325"/>
<path d="M49.5278 56.9832V56.6257C49.5278 55.7347 49.8968 54.8802 50.5535 54.2501C51.2103 53.6201 52.101 53.2661 53.0297 53.2661C53.9585 53.2661 54.8492 53.6201 55.506 54.2501C56.1627 54.8802 56.5316 55.7347 56.5316 56.6257V56.9832H49.5278ZM53.0297 53.9812C52.3801 53.9906 51.7555 54.2232 51.2695 54.6369C50.7835 55.0506 50.4684 55.6178 50.3813 56.2354V56.2518H55.6839V56.2354C55.5953 55.6181 55.2787 55.0518 54.7916 54.6396C54.3045 54.2274 53.6792 53.9966 53.0297 53.9894V53.9812Z" fill="#C78325"/>
<path d="M47.9062 67.3134L47.9119 49.4212L48.754 49.4185L48.7511 66.5684L53.2203 66.5738V67.3134H47.9062Z" fill="#C78325"/>
<path fill-rule="evenodd" clip-rule="evenodd" d="M46.6951 44.7349H44.0808C43.9218 44.7363 43.7699 44.7979 43.658 44.9063C43.5462 45.0146 43.4834 45.161 43.4834 45.3135V47.6087C43.4826 47.7624 43.5448 47.9103 43.6565 48.0206C43.7682 48.1308 43.9206 48.1946 44.0808 48.1982H46.6951C46.8534 48.1918 47.0029 48.1268 47.1122 48.0169C47.2215 47.9069 47.282 47.7606 47.2812 47.6087V45.3135C47.2819 45.1612 47.2198 45.0149 47.1084 44.9064C46.997 44.798 46.8453 44.7363 46.6866 44.7349H46.6951ZM46.4277 47.3685H44.3397V45.5509H46.4277V47.3685ZM50.7831 46.8718L48.7036 44.7404H47.9099V48.1982H48.7633V45.9848L50.8542 48.1982H51.6365V44.7404H50.7831V46.8718ZM56.1512 45.8047V45.3135C56.1512 45.161 56.0884 45.0146 55.9765 44.9063C55.8647 44.7979 55.7127 44.7363 55.5538 44.7349H52.9394C52.7804 44.7363 52.6285 44.7979 52.5166 44.9063C52.4048 45.0146 52.342 45.161 52.342 45.3135V47.6087C52.3412 47.7624 52.4034 47.9103 52.5151 48.0206C52.6268 48.1308 52.7792 48.1946 52.9394 48.1982H55.5538C55.7137 48.1939 55.8657 48.1299 55.9773 48.0198C56.0888 47.9097 56.1512 47.7622 56.1512 47.6087V46.0585H54.1399V46.8773H55.2949V47.3658H53.1983V45.5509H55.2949V45.8047H56.1512ZM30.0191 44.7404H27.2739V48.1982H28.1274V46.85H30.022C30.1807 46.8493 30.3326 46.7883 30.4446 46.6803C30.5565 46.5724 30.6194 46.4264 30.6194 46.2741V45.3162C30.6194 45.1639 30.5565 45.0179 30.4446 44.91C30.3326 44.8021 30.1807 44.7411 30.022 44.7404H30.0191ZM29.7574 46.034H28.1245V45.5564H29.7574V46.034ZM38.2917 47.3712H36.4711V44.7404H35.6176V47.6196C35.6176 47.7721 35.6804 47.9184 35.7923 48.0268C35.9041 48.1351 36.0561 48.1967 36.215 48.1982H38.5449C38.7039 48.1967 38.8558 48.1351 38.9677 48.0268C39.0795 47.9184 39.1423 47.7721 39.1423 47.6196V44.7404H38.2889L38.2917 47.3712ZM34.0075 46.034H32.0162V44.7404H31.1627V48.1982H32.0162V46.8582H34.0075V48.1982H34.8609V44.7404H34.0075V46.034ZM40.9629 44.7404H40.1095V48.1982H43.1534V47.3794H40.9686L40.9629 44.7404Z" fill="#126269"/>
<path d="M30.9855 59.9965C28.8406 59.9965 27.3898 58.7248 27.111 57.5403L27.0825 57.4066L27.8307 57.1064L27.8705 57.2729C28.1778 58.6374 29.7082 59.2433 30.9998 59.2433C32.2913 59.2433 33.6255 58.5801 33.6255 57.1064C33.6255 56.0338 32.9797 55.3406 31.7053 55.0459L30.0183 54.6638C28.3228 54.2954 27.2703 53.2665 27.2703 51.9865C27.2703 50.2208 28.9231 49.2983 30.5531 49.2983C32.6384 49.2983 33.6824 50.5428 33.9669 51.6099L33.9953 51.73L33.2585 52.0029L33.2215 51.8364C32.9371 50.5947 31.6768 50.0379 30.5503 50.0379C29.3583 50.0461 28.1066 50.6493 28.1066 51.9729C28.1066 52.8271 28.9601 53.6104 30.1947 53.8833L31.9016 54.2654C33.5857 54.6502 34.4761 55.6299 34.4761 57.0927C34.4618 59.0168 32.7123 59.9965 30.9855 59.9965Z" fill="#C78325"/>
<path d="M43.2976 59.7343V55.5314C43.2976 55.1712 43.1895 54.0004 41.7984 54.0004C41.0758 54.0004 40.2992 54.4343 40.2992 55.6379V59.7316H39.4458V55.5314C39.4458 54.1505 38.4245 54.0004 37.9864 54.0004C37.2581 54.0004 36.4701 54.6499 36.4701 55.848V59.7343H35.6167V53.5146H36.4701V53.9895C36.661 53.7619 36.9022 53.5778 37.1762 53.4504C37.4502 53.323 37.7502 53.2554 38.0547 53.2526C38.4316 53.2357 38.8059 53.3219 39.1337 53.5011C39.4616 53.6804 39.7296 53.9453 39.9066 54.2651C40.11 53.9457 40.3981 53.6837 40.7414 53.5059C41.0847 53.328 41.471 53.2406 41.861 53.2526C42.9249 53.2526 44.1624 53.8476 44.1624 55.5314V59.7343H43.2976Z" fill="#C78325"/>
<path d="M46.4496 53.5154H45.605V59.7324H46.4496V53.5154Z" fill="#C78325"/>
<path d="M54.6317 61.0982H53.7871V67.3151H54.6317V61.0982Z" fill="#C78325"/>
<path d="M58.0601 67.3188L55.019 61.0991H55.955L58.4555 66.2162L60.9561 61.0991H61.892L58.8538 67.3188H58.0601Z" fill="#C78325"/>
<path d="M69.2986 67.3186V63.577C69.2986 62.2124 68.2859 61.5984 67.3471 61.5984C67.0762 61.59 66.8065 61.6358 66.5551 61.7329C66.3037 61.83 66.0762 61.9763 65.887 62.1625C65.6978 62.3486 65.5511 62.5705 65.4562 62.8141C65.3613 63.0576 65.3203 63.3174 65.3359 63.577V67.3186H64.4824V61.0989H65.3359V61.7021C65.5874 61.425 65.899 61.204 66.2489 61.0546C66.5987 60.9052 66.9784 60.8309 67.3613 60.8369C67.7345 60.8291 68.1054 60.8948 68.451 61.03C68.7967 61.1651 69.1099 61.3667 69.3711 61.6225C69.6324 61.8782 69.8362 62.1827 69.97 62.5169C70.1039 62.8512 70.1648 63.2083 70.1492 63.5661V67.3077L69.2986 67.3186Z" fill="#C78325"/>
<path d="M53.0315 60.0349C52.5672 60.0265 52.1087 59.9339 51.6802 59.7619C50.917 59.4511 50.2882 58.898 49.8994 58.1954L50.127 58.059C50.2126 58.008 50.3108 57.9797 50.4115 57.9771C50.4989 57.9773 50.5851 57.9963 50.6639 58.0327C50.7426 58.0691 50.8119 58.1219 50.8666 58.1872C51.1114 58.5157 51.4344 58.7834 51.8087 58.968C52.183 59.1527 52.5978 59.2491 53.0187 59.2491C53.4396 59.2491 53.8544 59.1527 54.2287 58.968C54.603 58.7834 54.926 58.5157 55.1708 58.1872C55.2244 58.1213 55.293 58.0681 55.3714 58.0317C55.4499 57.9952 55.536 57.9766 55.6231 57.9771C55.7238 57.9797 55.822 58.008 55.9076 58.059L56.1408 58.1927C55.7633 58.8937 55.1468 59.4494 54.3941 59.7674C53.9658 59.9396 53.5073 60.0323 53.0429 60.0403L53.0315 60.0349Z" fill="#38626A"/>
<path d="M63.1898 61.0982H62.3452V67.3151H63.1898V61.0982Z" fill="#C78325"/>
<path d="M75.2363 49.9314C73.9391 49.7131 69.285 50.3244 63.5727 54.571C67.6919 47.7263 65.9737 42.4454 65.419 41.4002C65.4029 41.3693 65.379 41.3427 65.3497 41.3227C65.3203 41.3028 65.2862 41.2901 65.2505 41.2858C65.2148 41.2815 65.1785 41.2856 65.1449 41.298C65.1112 41.3103 65.0813 41.3304 65.0577 41.3565C63.7406 42.8193 63.8344 46.4955 64.0819 48.4523C64.5115 51.9483 63.5613 53.875 63.1915 54.4782C63.1915 54.41 63.1915 53.8368 63.1915 52.9717V42.8575C63.1928 42.5365 63.0995 42.2217 62.9223 41.9493C62.7451 41.677 62.4913 41.4582 62.1902 41.3183L49.164 35.1778C48.9004 35.0525 48.6087 34.992 48.3148 35.0015C48.0208 35.011 47.734 35.0903 47.4799 35.2323L36.5161 41.3128C36.2438 41.463 36.0174 41.6792 35.8597 41.9398C35.7019 42.2004 35.6183 42.4962 35.6172 42.7975V43.5207H36.4706V42.7975C36.4712 42.6387 36.515 42.4829 36.5979 42.3455C36.6808 42.2081 36.7997 42.0938 36.9428 42.0142L47.9009 35.9337C48.0352 35.8586 48.1868 35.8165 48.3422 35.8113C48.4975 35.8061 48.6518 35.8378 48.7913 35.9037L61.8147 42.0443C61.9746 42.1187 62.1092 42.2351 62.2029 42.38C62.2966 42.525 62.3454 42.6925 62.3438 42.863V53.0454C61.3566 48.2176 58.7679 45.4911 57.832 44.9781C57.799 44.9606 57.7614 44.953 57.7239 44.9562C57.6776 44.9611 57.6345 44.9811 57.6018 45.0129C57.5692 45.0448 57.549 45.0864 57.5447 45.1309C57.337 46.9185 59.1747 49.7295 60.4264 50.9985C61.9654 52.576 62.7676 54.4864 62.0906 55.8891C60.9072 58.3454 56.9359 60.0565 54.8108 60.2367C54.6828 60.2367 54.7312 60.3677 54.8108 60.3677C57.2057 60.31 59.4969 59.4185 61.2571 57.8596C61.9441 57.2057 62.5855 56.5092 63.1773 55.7745C64.0535 54.762 65.8798 53.7768 68.2268 53.7086C70.7643 53.6322 74.2634 52.0356 75.4126 50.2808C75.4333 50.2477 75.445 50.2103 75.4468 50.1718C75.4486 50.1333 75.4404 50.095 75.4229 50.0604C75.4054 50.0257 75.3791 49.9958 75.3466 49.9733C75.314 49.9508 75.2761 49.9364 75.2363 49.9314Z" fill="#126269"/>
</g>
<defs>
<clipPath id="clip0">
<rect width="51.0181" height="36" fill="white" transform="translate(27.0825 35.0002)"/>
</clipPath>
</defs>
</svg>
