<svg width="16" height="16" viewBox="0 0 16 16" fill="none" xmlns="http://www.w3.org/2000/svg">
<path d="M10.6672 13.5999H4.40052C4.13385 13.5999 3.86719 13.8665 3.86719 14.1332C3.86719 14.3999 4.13385 14.6665 4.40052 14.6665H10.6672C10.9339 14.6665 11.2005 14.3999 11.2005 14.1332C11.2005 13.8665 11.0672 13.5999 10.6672 13.5999Z" fill="#05626A"/>
<path d="M11.7335 2.79992H10.8002V1.99992C10.8002 1.59992 10.5335 1.33325 10.1335 1.33325C9.7335 1.33325 9.46683 1.59992 9.46683 1.99992V2.66659H7.06683C6.80016 2.66659 6.5335 2.93325 6.5335 3.19992C6.5335 3.46659 6.80016 3.73325 7.06683 3.73325H9.46683V5.99992C8.9335 5.19992 8.00016 4.66659 6.80016 4.66659C4.9335 4.79992 3.3335 6.39992 3.3335 8.79992C3.3335 11.1999 4.9335 12.7999 6.9335 12.7999C8.00016 12.7999 9.06683 12.3999 9.60016 11.4666V12.1333C9.60016 12.5333 9.86683 12.7999 10.2668 12.7999C10.6668 12.7999 10.9335 12.5333 10.9335 12.1333V3.86659H11.8668C12.1335 3.86659 12.4002 3.59992 12.4002 3.33325C12.4002 3.06659 12.1335 2.79992 11.7335 2.79992ZM7.06683 11.4666C5.7335 11.4666 4.66683 10.3999 4.66683 8.79992C4.66683 7.19992 5.7335 6.13325 7.06683 6.13325C8.40016 6.13325 9.46683 7.33325 9.46683 8.79992C9.46683 10.3999 8.5335 11.4666 7.06683 11.4666Z" fill="#05626A"/>
</svg>
