<?xml version="1.0"?>
<svg xmlns="http://www.w3.org/2000/svg" xmlns:xlink="http://www.w3.org/1999/xlink" xmlns:svgjs="http://svgjs.com/svgjs" version="1.1" width="512" height="512" x="0" y="0" viewBox="0 0 447.00118 447" style="enable-background:new 0 0 512 512" xml:space="preserve" class=""><g><path xmlns="http://www.w3.org/2000/svg" d="m399.5 171.289062h-14.652344l-128.835937-120.539062c2.300781-4.761719 3.496093-9.984375 3.488281-15.273438-.011719-19.605468-15.917969-35.4882808-35.523438-35.476562-19.605468.0117188-35.488281 15.917969-35.476562 35.523438-.007812 5.273437 1.1875 10.476562 3.488281 15.21875l-128.835937 120.546874h-14.652344c-26.46875 0-48.5 21.785157-48.5 48.25v141c0 26.46875 22.03125 47.75 48.5 47.75h351c12.648438.023438 24.78125-5.007812 33.703125-13.976562 8.917969-8.964844 13.886719-21.125 13.796875-33.773438v-141c0-26.464843-21.03125-48.25-47.5-48.25zm-175.5-155.25c10.769531 0 19.5 8.730469 19.5 19.5 0 10.769532-8.730469 19.5-19.5 19.5s-19.5-8.730468-19.5-19.5c.011719-10.765624 8.734375-19.488281 19.5-19.5zm-21.96875 47.230469c12.839844 10.289063 31.109375 10.277344 43.9375-.03125l115.472656 108.050781h-274.882812zm228.96875 297.019531c0 17.671876-14.328125 32-32 32h-351c-17.671875 0-32-14.328124-32-32v-141c0-17.671874 14.328125-32 32-32h351c17.671875 0 32 14.328126 32 32zm0 0" fill="#c98511" data-original="#000000" style=""/><path xmlns="http://www.w3.org/2000/svg" d="m229.355469 198.644531c-3.007813-2.609375-7.472657-2.613281-10.480469-.007812l-85.535156 74.074219c-2.519532 2.089843-3.425782 5.550781-2.261719 8.609374 1.195313 3.078126 4.203125 5.070313 7.5 4.96875h11.421875v86.394532c-.039062 4.417968 3.460938 8.0625 7.882812 8.199218l130.617188 1.40625h.074219c4.578125-.152343 8.257812-3.820312 8.425781-8.398437v-87.601563h12.425781c3.304688.109376 6.3125-1.886718 7.496094-4.976562 1.183594-3.085938.277344-6.585938-2.253906-8.714844zm-5.253907 16.160157 63.90625 55.484374h-127.972656zm13.898438 150.617187-27-.25v-31.882813h27zm43 .398437-27-.25v-39.980468c-.027344-4.496094-3.605469-8.164063-8.101562-8.300782h-43.097657c-4.417969 0-7.800781 3.882813-7.800781 8.300782v39.429687l-29-.265625v-78.464844h115zm0 0" fill="#c98511" data-original="#000000" style=""/></g></svg>
