<?xml version="1.0"?>
<svg xmlns="http://www.w3.org/2000/svg" xmlns:xlink="http://www.w3.org/1999/xlink" xmlns:svgjs="http://svgjs.com/svgjs" version="1.1" width="512" height="512" x="0" y="0" viewBox="0 0 512 512" style="enable-background:new 0 0 512 512" xml:space="preserve" class=""><g><g xmlns="http://www.w3.org/2000/svg"><path d="m433.69 218.83-20.51 21.89-157.18-147.31-.01.01-157.18 147.3-20.51-21.89 177.69-166.52.01-.01z" fill="#e7cfa4" data-original="#4e588b" style="" class=""/><g><path d="m0 203.91h512v276.79h-512z" fill="#c98511" data-original="#ff3d58" style="" class=""/></g><path d="m433.69 218.83-20.51 21.89-157.18-147.31-.01.01v-41.11l.01-.01z" fill="#e0b56d" data-original="#293e65" style="" class=""/><path d="m255.99 203.91h256.01v276.79h-256.01z" fill="#c98511" data-original="#d20173" style="" class=""/><path d="m288 63.3c0 17.67-14.33 32-32 32h-.01c-17.67-.01-31.99-14.33-31.99-32s14.32-31.99 31.99-32h.01c17.67 0 32 14.33 32 32z" fill="#ffffff" data-original="#f1f1f1" style="" class=""/><path d="m256 95.3h-.01v-64h.01c17.67 0 32 14.33 32 32s-14.33 32-32 32z" fill="#ffffff" data-original="#d6d6ea" style="" class=""/><path d="m186.46 273.99v136.63h-30v-53.31h-43.79v53.31h-30v-136.63h30v53.32h43.79v-53.32z" fill="#ffffff" data-original="#f1f1f1" style="" class=""/><path d="m428.23 273.99v30h-29.56v106.63h-30v-106.63h-29.32v-30z" fill="#ffffff" data-original="#d6d6ea" style="" class=""/><path d="m269.56 273.99c-4.65 0-9.19.47-13.57 1.36-31.19 6.31-54.75 33.93-54.75 66.95v.01c.01 33.02 23.56 60.65 54.75 66.95 4.38.89 8.92 1.36 13.57 1.36 37.67 0 68.3-30.64 68.31-68.31v-.01c0-37.66-30.64-68.31-68.31-68.31zm38.31 68.32c-.01 21.13-17.19 38.31-38.31 38.31-4.78 0-9.35-.88-13.57-2.49-14.45-5.48-24.74-19.47-24.75-35.82v-.01c0-16.34 10.3-30.34 24.75-35.82 4.22-1.61 8.79-2.49 13.57-2.49 21.12 0 38.31 17.19 38.31 38.31z" fill="#ffffff" data-original="#f1f1f1" style="" class=""/><path d="m337.87 342.3v.01c-.01 37.67-30.64 68.31-68.31 68.31-4.65 0-9.19-.47-13.57-1.36v-31.13c4.22 1.61 8.79 2.49 13.57 2.49 21.12 0 38.3-17.18 38.31-38.31v-.01c0-21.12-17.19-38.31-38.31-38.31-4.78 0-9.35.88-13.57 2.49v-31.13c4.38-.89 8.92-1.36 13.57-1.36 37.67 0 68.31 30.65 68.31 68.31z" fill="#ffffff" data-original="#d6d6ea" style="" class=""/></g></g></svg>
