<?xml version="1.0"?>
<svg xmlns="http://www.w3.org/2000/svg" xmlns:xlink="http://www.w3.org/1999/xlink" xmlns:svgjs="http://svgjs.com/svgjs" version="1.1" width="512" height="512" x="0" y="0" viewBox="0 0 512.027 512.027" style="enable-background:new 0 0 512 512" xml:space="preserve" class=""><g><g xmlns="http://www.w3.org/2000/svg"><path d="m500.384 339.961-25.372-22.445v-62.594c0-12.958-10.542-23.5-23.5-23.5h-15.237c-12.958 0-23.5 10.542-23.5 23.5v7.537l-24.053-21.278c-1.459-1.28-2.987-2.441-4.571-3.484 8.574-6.812 14.087-17.318 14.087-29.094 0-20.487-16.667-37.154-37.153-37.154-1.501 0-2.978.1-4.433.274 6.387-14.882 9.931-31.263 9.931-48.457-.001-67.969-55.297-123.266-123.266-123.266-47.829 0-89.382 27.383-109.809 67.294-2.572-.12-5.157-.172-7.755-.135-31.929.452-62.37 13.619-85.718 37.076-23.346 23.456-36.372 53.958-36.68 85.89-.443 46.106 24.471 88.423 65.021 110.436.108.058.152.175.104.271l-11.608 23.118c-3.293 6.557-2.959 14.199.893 20.443s10.531 9.971 17.867 9.971h3.823v67.328c0 4.142 3.357 7.5 7.5 7.5s7.5-3.358 7.5-7.5v-71.102c0-6.19-5.036-11.226-11.227-11.226h-7.597c-3.019 0-4.572-1.991-5.101-2.846-.527-.856-1.609-3.138-.255-5.836l11.61-23.119c3.701-7.375.911-16.24-6.353-20.184-35.659-19.358-57.568-56.568-57.178-97.109.557-57.785 49.836-107.294 107.61-108.112.382-.006.762-.001 1.143-.003-4.565 12.865-7.058 26.701-7.058 41.111 0 4.142 3.357 7.5 7.5 7.5s7.5-3.358 7.5-7.5c0-14.153 2.734-27.679 7.695-40.083 23.138 3.192 44.524 13.693 61.469 30.398 20.981 20.687 32.536 48.304 32.536 77.765 0 40.078-21.903 76.871-57.163 96.021-7.275 3.951-10.073 12.823-6.37 20.198l11.608 23.116c1.354 2.698.272 4.979-.255 5.836-.528.856-2.082 2.847-5.101 2.847h-7.598c-6.19 0-11.226 5.036-11.226 11.226v119.8c0 2.668-1.282 5.206-3.43 6.789l-24.664 18.177c-2.993 2.206-7.016 2.205-10.007 0l-24.663-18.176c-2.147-1.583-3.43-4.121-3.43-6.789v-18.698c0-4.142-3.357-7.5-7.5-7.5s-7.5 3.358-7.5 7.5v18.698c0 7.414 3.562 14.465 9.53 18.864l24.664 18.177c4.157 3.064 9.029 4.596 13.902 4.596 4.872 0 9.744-1.532 13.901-4.596l24.664-18.177c5.968-4.397 9.531-11.45 9.531-18.864v-116.027h3.823c7.336 0 14.016-3.728 17.867-9.972 3.852-6.244 4.186-13.886.893-20.442l-11.608-23.116c-.05-.099.003-.219.124-.285 22.936-12.457 40.889-31.487 52.066-54.019h4.504c31.133 0 59.602-11.607 81.321-30.714 1.736 8.787 6.581 16.464 13.336 21.847-1.612 1.058-3.166 2.238-4.65 3.54l-111.529 98.748c-9.658 8.477-11.087 23.094-3.252 33.279 4.101 5.331 10.292 8.767 16.986 9.424 2.879.281 5.767.038 8.529-.681v107.527c0 12.407 10.094 22.5 22.5 22.5h188.953c12.406 0 22.5-10.093 22.5-22.5v-55.412c0-4.142-3.358-7.5-7.5-7.5-4.143 0-7.5 3.358-7.5 7.5v7.971h-64.784c-.43 0-.85.044-1.26.114-2.334-15.144-15.455-26.776-31.241-26.776h-9.38c-15.747 0-28.838 11.574-31.221 26.662h-66.066v-69.183c0-.196-.015-.389-.029-.582l99.485-87.9c1.439-1.259 3.606-1.258 5.021-.02l99.51 87.841c-.019.218-.033.438-.033.66v31.212c0 4.142 3.357 7.5 7.5 7.5 4.142 0 7.5-3.358 7.5-7.5v-22.145c2.035.538 4.139.826 6.261.826.787 0 1.577-.039 2.366-.116 6.694-.658 12.886-4.093 16.986-9.424 7.837-10.179 6.412-24.789-3.236-33.267zm-72.609-85.039c0-4.687 3.813-8.5 8.5-8.5h15.237c4.686 0 8.5 3.813 8.5 8.5v49.324l-32.237-28.518zm-44.538-46.32c0 12.216-9.938 22.154-22.153 22.154-12.216 0-22.154-9.938-22.154-22.154s9.938-22.154 22.154-22.154c12.216.001 22.153 9.939 22.153 22.154zm-138.161 22.906c4.351-12.734 6.676-26.272 6.676-40.162 0-33.508-13.142-64.919-37.005-88.446-18.099-17.844-40.666-29.451-65.137-33.81 18.754-32.312 53.734-54.09 93.707-54.09 59.697 0 108.265 48.568 108.265 108.266 0 59.11-47.617 107.299-106.506 108.242zm217.936 225.551v32.441c0 4.136-3.364 7.5-7.5 7.5h-58.175v-39.999c.292.035.589.058.891.058zm-123.278-10.051c0-9.16 7.452-16.611 16.611-16.611h9.38c9.159 0 16.611 7.452 16.611 16.611v49.992h-42.603v-49.992zm-15 10.051v39.941h-58.176c-4.136 0-7.5-3.364-7.5-7.5v-32.441zm167-92.974c-1.607 2.09-3.938 3.383-6.561 3.641-2.63.257-5.162-.557-7.126-2.275l-104.607-92.341c-3.532-3.094-7.962-4.642-12.396-4.642-4.44 0-8.886 1.554-12.436 4.663l-104.465 92.3c-1.984 1.738-4.523 2.553-7.146 2.295-2.625-.258-4.956-1.551-6.564-3.642-3.026-3.936-2.475-9.583 1.282-12.881l111.528-98.748c10.145-8.9 25.444-8.9 35.563-.021l111.65 98.771c.008.006.016.013.022.02 3.733 3.276 4.285 8.924 1.256 12.86z" fill="#c98511" data-original="#000000" style=""/><path d="m323.882 352.391c0 20.487 16.667 37.154 37.153 37.154 20.487 0 37.154-16.667 37.154-37.154s-16.667-37.154-37.154-37.154c-20.486 0-37.153 16.667-37.153 37.154zm59.308 0c0 12.216-9.939 22.154-22.154 22.154-12.216 0-22.153-9.938-22.153-22.154s9.938-22.154 22.153-22.154 22.154 9.938 22.154 22.154z" fill="#c98511" data-original="#000000" style=""/><path d="m101.019 112.019c-3.98-3.271-9.513-3.896-14.094-1.593-30.782 15.481-49.905 46.488-49.905 80.921 0 25.633 10.938 50.172 30.012 67.327 3.072 2.764 6.96 4.238 10.997 4.238 1.039 0 2.089-.098 3.138-.296 5.145-.975 9.438-4.219 11.777-8.899l5.458-10.917c.273-.544.82-.883 1.43-.883h60.671c.635 0 1.209.376 1.464.958l3.055 6.983c2.211 5.053 6.77 8.668 12.194 9.67 5.433 1.002 10.981-.748 14.854-4.681 16.963-17.23 26.201-40.036 26.013-64.217-.254-32.605-19.708-63.835-49.564-79.561-4.58-2.413-9.955-1.917-14.026 1.298-4.058 3.205-5.849 8.514-4.562 13.525.528 2.06.769 4.199.713 6.357-.302 11.852-9.789 21.71-21.599 22.445-6.465.404-12.611-1.805-17.305-6.215-4.698-4.415-7.285-10.395-7.285-16.837 0-2.104.282-4.184.838-6.184 1.383-4.986-.255-10.136-4.274-13.439zm28.956 57.646c19.499-1.213 35.164-17.48 35.663-37.034.053-2.07-.062-4.133-.339-6.169 22.887 13.732 37.582 38.517 37.782 64.283.157 20.175-7.55 39.203-21.702 53.577-.496.503-1.06.525-1.439.453-.382-.07-.896-.289-1.177-.931l-3.055-6.983c-2.644-6.041-8.612-9.945-15.206-9.945h-60.671c-6.328 0-12.017 3.516-14.846 9.175l-5.458 10.916c-.313.626-.858.814-1.155.87-.346.065-.851.056-1.311-.357-15.915-14.314-25.042-34.789-25.042-56.174 0-27.295 14.405-52.012 37.872-65.49-.292 1.908-.438 3.842-.438 5.785 0 10.473 4.379 20.594 12.014 27.768 7.742 7.276 17.866 10.916 28.508 10.256z" fill="#c98511" data-original="#000000" style=""/><path d="m120.052 289.987v158.941c0 4.142 3.357 7.5 7.5 7.5s7.5-3.358 7.5-7.5v-158.941c0-4.142-3.357-7.5-7.5-7.5s-7.5 3.358-7.5 7.5z" fill="#c98511" data-original="#000000" style=""/></g></g></svg>
