<?xml version="1.0"?>
<svg xmlns="http://www.w3.org/2000/svg" xmlns:xlink="http://www.w3.org/1999/xlink" xmlns:svgjs="http://svgjs.com/svgjs" version="1.1" width="512" height="512" x="0" y="0" viewBox="0 0 511.983 511.983" style="enable-background:new 0 0 512 512" xml:space="preserve" class=""><g><g xmlns="http://www.w3.org/2000/svg"><g><path d="m407.711 79.122-38.865 38.866-16.854-16.855c-3.906-3.905-10.236-3.905-14.143 0-3.905 3.905-3.905 10.237 0 14.143l23.926 23.926c1.953 1.953 4.512 2.929 7.071 2.929s5.118-.976 7.071-2.929l45.937-45.937c3.905-3.905 3.905-10.237 0-14.143-3.907-3.905-10.237-3.905-14.143 0z" fill="#c8842f" data-original="#000000" style="" class=""/><path d="m471.096 97.636c16.324-28.271-4.816-64.591-37.292-64.591-8.213 0-15.864-4.418-19.971-11.53-16.537-27.938-58.157-28.453-74.584 0-4.106 7.112-11.76 11.531-19.972 11.531-7.177 0-13.998 1.729-20.04 4.895-.226-.229-.44-.469-.69-.678-27.637-23.102-61.281-35.956-97.295-37.171-69.074-2.352-133.632 41.923-157.032 107.648-1.852 5.203.864 10.922 6.067 12.775 5.205 1.851 10.922-.864 12.775-6.067 20.511-57.613 77.078-96.395 137.515-94.37 30.822 1.041 59.659 11.82 83.534 31.202-9.603 13.687-10.504 31.844-2.134 46.341 3.976 6.914 4.002 16.152.006 23.074-4.83 8.369-6.656 17.746-5.489 26.879 2.3 17.984 16.083 33.125 33.83 36.807v57.464c-3.984 5.612-8.422 10.976-13.222 15.98-22.779 23.783-43.869 51.314-43.948 91.391-.01 6.065-5.059 11.511-11.22 11.457h-36.247v-105.596c23.385-4.662 41.065-25.341 41.065-50.076 0-5.523-4.477-10-10-10s-10 4.477-10 10c0 17.13-13.936 31.066-31.065 31.066-17.13 0-31.066-13.936-31.066-31.066 0-5.523-4.477-10-10-10s-10 4.477-10 10c0 24.736 17.68 45.414 41.066 50.076v105.596h-36.217c-6.19-.016-11.235-5.156-11.246-11.459-.079-40.073-21.169-67.605-43.954-91.394-16.764-17.474-28.78-39.036-34.749-62.355-1.37-5.35-6.817-8.578-12.167-7.208-5.351 1.369-8.578 6.817-7.208 12.167 6.821 26.651 20.547 51.287 39.687 71.236 23 24.013 38.33 46.398 38.392 77.59.012 7.086 2.375 13.634 6.34 18.899-3.931 4.206-6.344 9.847-6.344 16.044v30.68c0 5.03 1.592 9.692 4.291 13.52-2.7 3.828-4.291 8.492-4.291 13.523 0 18.858 15.343 34.201 34.201 34.201h2.716c2.355 20.163 19.532 35.865 40.317 35.865h2.005c20.785 0 37.962-15.702 40.317-35.865h1.178c18.858 0 34.201-15.343 34.201-34.201v-20c0-5.03-1.592-9.692-4.291-13.52 2.7-3.828 4.291-8.492 4.291-13.523v-10.68c0-6.2-2.415-11.843-6.349-16.049 4.062-5.435 6.338-12.11 6.349-18.892.06-30.639 14.856-52.78 37.17-76.306v30.666c0 7.875 9.335 12.755 15.805 8.143l50.406-35.932 50.415 35.933c6.388 4.555 15.804-.199 15.804-8.143v-119.248c28.158-5.844 42.677-38.842 28.343-63.668-4.108-7.112-4.108-15.949-.003-23.061zm-221.463 283.037c1.941 0 3.521 1.58 3.521 3.521v10.267c0 1.941-1.23 3.486-3.521 3.934-.6.117-108.514 19.945-108.514 19.945-1.646-.294-2.899-1.736-2.899-3.466v-30.68c0-1.941 1.58-3.521 3.521-3.521zm-52.175 111.31h-2.005c-9.73 0-17.907-6.78-20.053-15.865h42.11c-2.144 9.085-10.321 15.865-20.052 15.865zm55.696-50.066c0 7.831-6.371 14.201-14.201 14.201h-86.532c-7.831 0-14.201-6.371-14.201-14.201 0-1.942 1.58-3.521 3.521-3.521.611 0 108.514-19.945 108.514-19.945 1.646.294 2.899 1.737 2.899 3.466zm169.6-157.711-40.416-28.806c-3.437-2.451-8.171-2.451-11.608 0l-40.405 28.804v-39.231-56.821c6.156 3.367 8.041 8.131 12.125 13.464 18.352 23.975 56.35 21.239 71.378-4.78 2.135-3.686 5.261-6.668 8.927-8.677v96.047zm31.022-153.509c8.74 15.137-2.608 34.591-19.989 34.591-15.103.027-29.69 8.453-37.273 21.531-8.027 13.902-28.412 15.388-38.233 2.562-10.094-13.191-21.335-24.049-39.002-24.093-8.337 0-15.804-4.311-19.972-11.531-4.07-7.049-4.094-15.968-.012-23.04 7.562-13.026 7.588-29.742.145-42.831-5.552-9.804-3.604-22.049 4.861-29.346 4.093-3.516 9.334-5.497 14.977-5.497 15.335 0 29.624-8.25 37.292-21.531 8.71-15.088 31.227-15.097 39.943 0 7.667 13.281 21.956 21.531 37.291 21.531 17.356 0 28.717 19.445 19.972 34.592-7.667 13.281-7.667 29.781 0 43.062z" fill="#c8842f" data-original="#000000" style="" class=""/><path d="m43.286 164.603c9.141 1.834 15.592-9.28 9.528-16.329-5.917-6.878-17.562-2.526-17.568 6.53-.003 4.668 3.425 8.922 8.04 9.799z" fill="#c8842f" data-original="#000000" style="" class=""/></g></g></g></svg>
